  0
SECTION
  2
HEADER
  9
$ACADVER
  1
AC1015
  9
$ACADMAINTVER
 70
     6
  9
$DWGCODEPAGE
  3
ANSI_1252
  9
$INSBASE
 10
0.0
 20
0.0
 30
0.0
  9
$EXTMIN
 10
0.0
 20
0.0
 30
0.0
  9
$EXTMAX
 10
21.59
 20
27.94
 30
0.0
  9
$LIMMIN
 10
0.0
 20
0.0
  9
$LIMMAX
 10
21.59
 20
27.94
  9
$ORTHOMODE
 70
     0
  9
$REGENMODE
 70
     1
  9
$FILLMODE
 70
     1
  9
$QTEXTMODE
 70
     0
  9
$MIRRTEXT
 70
     1
  9
$LTSCALE
 40
1.0
  9
$ATTMODE
 70
     1
  9
$TEXTSIZE
 40
0.3175
  9
$TRACEWID
 40
1.0
  9
$TEXTSTYLE
  7
Standard
  9
$CLAYER
  8
0
  9
$CELTYPE
  6
ByLayer
  9
$CECOLOR
 62
   256
  9
$CELTSCALE
 40
1.0
  9
$DISPSILH
 70
     0
  9
$DIMSCALE
 40
1.0
  9
$DIMASZ
 40
0.3302
  9
$DIMEXO
 40
0.127
  9
$DIMDLI
 40
3.75
  9
$DIMRND
 40
0.0
  9
$DIMDLE
 40
0.0
  9
$DIMEXE
 40
0.3175
  9
$DIMTP
 40
0.0
  9
$DIMTM
 40
0.0
  9
$DIMTXT
 40
0.3175
  9
$DIMCEN
 40
2.5
  9
$DIMTSZ
 40
0.0
  9
$DIMTOL
 70
     0
  9
$DIMLIM
 70
     0
  9
$DIMTIH
 70
     1
  9
$DIMTOH
 70
     1
  9
$DIMSE1
 70
     0
  9
$DIMSE2
 70
     0
  9
$DIMTAD
 70
     0
  9
$DIMZIN
 70
     0
  9
$DIMBLK
  1

  9
$DIMASO
 70
     1
  9
$DIMSHO
 70
     1
  9
$DIMPOST
  1

  9
$DIMAPOST
  1

  9
$DIMALT
 70
     0
  9
$DIMALTD
 70
     3
  9
$DIMALTF
 40
0.3937007874
  9
$DIMLFAC
 40
5.0
  9
$DIMTOFL
 70
     1
  9
$DIMTVP
 40
0.0
  9
$DIMTIX
 70
     0
  9
$DIMSOXD
 70
     0
  9
$DIMSAH
 70
     0
  9
$DIMBLK1
  1

  9
$DIMBLK2
  1

  9
$DIMSTYLE
  2
ISO-25
  9
$DIMCLRD
 70
     0
  9
$DIMCLRE
 70
     0
  9
$DIMCLRT
 70
     0
  9
$DIMTFAC
 40
1.0
  9
$DIMGAP
 40
0.1524
  9
$DIMJUST
 70
     0
  9
$DIMSD1
 70
     0
  9
$DIMSD2
 70
     0
  9
$DIMTOLJ
 70
     0
  9
$DIMTZIN
 70
     0
  9
$DIMALTZ
 70
     0
  9
$DIMALTTZ
 70
     0
  9
$DIMUPT
 70
     0
  9
$DIMDEC
 70
     2
  9
$DIMTDEC
 70
     2
  9
$DIMALTU
 70
     2
  9
$DIMALTTD
 70
     3
  9
$DIMTXSTY
  7
Standard
  9
$DIMAUNIT
 70
     0
  9
$DIMADEC
 70
     2
  9
$DIMALTRND
 40
0.0
  9
$DIMAZIN
 70
     0
  9
$DIMDSEP
 70
    44
  9
$DIMATFIT
 70
     3
  9
$DIMFRAC
 70
     0
  9
$DIMLDRBLK
  1

  9
$DIMLUNIT
 70
     2
  9
$DIMLWD
 70
    -2
  9
$DIMLWE
 70
    -2
  9
$DIMTMOVE
 70
     0
  9
$LUNITS
 70
     2
  9
$LUPREC
 70
     2
  9
$SKETCHINC
 40
1.0
  9
$FILLETRAD
 40
10.0
  9
$AUNITS
 70
     0
  9
$AUPREC
 70
     2
  9
$MENU
  1
.
  9
$ELEVATION
 40
0.0
  9
$PELEVATION
 40
0.0
  9
$THICKNESS
 40
0.0
  9
$LIMCHECK
 70
     0
  9
$CHAMFERA
 40
0.0
  9
$CHAMFERB
 40
0.0
  9
$CHAMFERC
 40
0.0
  9
$CHAMFERD
 40
0.0
  9
$SKPOLY
 70
     0
  9
$TDCREATE
 40
2459167.018658044
  9
$TDUCREATE
 40
2459167.268658044
  9
$TDUPDATE
 40
2459167.018661435
  9
$TDUUPDATE
 40
2459167.268661435
  9
$TDINDWG
 40
0.0000000116
  9
$TDUSRTIMER
 40
0.0000000116
  9
$USRTIMER
 70
     1
  9
$ANGBASE
 50
0.0
  9
$ANGDIR
 70
     0
  9
$PDMODE
 70
     0
  9
$PDSIZE
 40
-1.0
  9
$PLINEWID
 40
0.0
  9
$SPLFRAME
 70
     0
  9
$SPLINETYPE
 70
     6
  9
$SPLINESEGS
 70
     8
  9
$HANDSEED
  5
1E5
  9
$SURFTAB1
 70
     6
  9
$SURFTAB2
 70
     6
  9
$SURFTYPE
 70
     6
  9
$SURFU
 70
     6
  9
$SURFV
 70
     6
  9
$UCSBASE
  2

  9
$UCSNAME
  2

  9
$UCSORG
 10
0.0
 20
0.0
 30
0.0
  9
$UCSXDIR
 10
1.0
 20
0.0
 30
0.0
  9
$UCSYDIR
 10
0.0
 20
1.0
 30
0.0
  9
$UCSORTHOREF
  2

  9
$UCSORTHOVIEW
 70
     0
  9
$UCSORGTOP
 10
0.0
 20
0.0
 30
0.0
  9
$UCSORGBOTTOM
 10
0.0
 20
0.0
 30
0.0
  9
$UCSORGLEFT
 10
0.0
 20
0.0
 30
0.0
  9
$UCSORGRIGHT
 10
0.0
 20
0.0
 30
0.0
  9
$UCSORGFRONT
 10
0.0
 20
0.0
 30
0.0
  9
$UCSORGBACK
 10
0.0
 20
0.0
 30
0.0
  9
$PUCSBASE
  2

  9
$PUCSNAME
  2

  9
$PUCSORG
 10
0.0
 20
0.0
 30
0.0
  9
$PUCSXDIR
 10
1.0
 20
0.0
 30
0.0
  9
$PUCSYDIR
 10
0.0
 20
1.0
 30
0.0
  9
$PUCSORTHOREF
  2

  9
$PUCSORTHOVIEW
 70
     0
  9
$PUCSORGTOP
 10
0.0
 20
0.0
 30
0.0
  9
$PUCSORGBOTTOM
 10
0.0
 20
0.0
 30
0.0
  9
$PUCSORGLEFT
 10
0.0
 20
0.0
 30
0.0
  9
$PUCSORGRIGHT
 10
0.0
 20
0.0
 30
0.0
  9
$PUCSORGFRONT
 10
0.0
 20
0.0
 30
0.0
  9
$PUCSORGBACK
 10
0.0
 20
0.0
 30
0.0
  9
$USERI1
 70
     0
  9
$USERI2
 70
     0
  9
$USERI3
 70
     0
  9
$USERI4
 70
     0
  9
$USERI5
 70
     0
  9
$USERR1
 40
0.0
  9
$USERR2
 40
0.0
  9
$USERR3
 40
0.0
  9
$USERR4
 40
0.0
  9
$USERR5
 40
0.0
  9
$WORLDVIEW
 70
     1
  9
$SHADEDGE
 70
     3
  9
$SHADEDIF
 70
    70
  9
$TILEMODE
 70
     1
  9
$MAXACTVP
 70
    64
  9
$PINSBASE
 10
0.0
 20
0.0
 30
0.0
  9
$PLIMCHECK
 70
     0
  9
$PEXTMIN
 10
1.0000000000E+20
 20
1.0000000000E+20
 30
1.0000000000E+20
  9
$PEXTMAX
 10
-1.0000000000E+20
 20
-1.0000000000E+20
 30
-1.0000000000E+20
  9
$PLIMMIN
 10
0.0
 20
0.0
  9
$PLIMMAX
 10
420.0
 20
297.0
  9
$UNITMODE
 70
     0
  9
$VISRETAIN
 70
     1
  9
$PLINEGEN
 70
     0
  9
$PSLTSCALE
 70
     1
  9
$TREEDEPTH
 70
  3020
  9
$CMLSTYLE
  2
Standard
  9
$CMLJUST
 70
     0
  9
$CMLSCALE
 40
20.0
  9
$PROXYGRAPHICS
 70
     1
  9
$MEASUREMENT
 70
     1
  9
$CELWEIGHT
370
    -1
  9
$ENDCAPS
280
     0
  9
$JOINSTYLE
280
     0
  9
$LWDISPLAY
290
     1
  9
$INSUNITS
 70
     4
  9
$HYPERLINKBASE
  1

  9
$STYLESHEET
  1

  9
$XEDIT
290
     1
  9
$CEPSNTYPE
380
     0
  9
$PSTYLEMODE
290
     1
  9
$FINGERPRINTGUID
  2
{632CC0E5-CD43-48F2-8B23-7FE3A7ECC267}
  9
$VERSIONGUID
  2
{FAEB1C32-E019-11D5-929B-00C0DF256EC4}
  9
$EXTNAMES
290
     1
  9
$PSVPSCALE
 40
0.0
  9
$OLESTARTUP
290
     0
  0
ENDSEC
  0
SECTION
  2
CLASSES
  0
CLASS
  1
ACDBDICTIONARYWDFLT
  2
AcDbDictionaryWithDefault
  3
ObjectDBX Classes
 90
        0
280
     0
281
     0
  0
CLASS
  1
VISUALSTYLE
  2
AcDbVisualStyle
  3
ObjectDBX Classes
 90
     4095
280
     0
281
     0
  0
CLASS
  1
MATERIAL
  2
AcDbMaterial
  3
ObjectDBX Classes
 90
     1153
280
     0
281
     0
  0
CLASS
  1
SCALE
  2
AcDbScale
  3
ObjectDBX Classes
 90
     1153
280
     0
281
     0
  0
CLASS
  1
SUN
  2
AcDbSun
  3
SCENEOE
 90
     1153
280
     0
281
     0
  0
CLASS
  1
ACDBPLACEHOLDER
  2
AcDbPlaceHolder
  3
ObjectDBX Classes
 90
        0
280
     0
281
     0
  0
CLASS
  1
LAYOUT
  2
AcDbLayout
  3
ObjectDBX Classes
 90
        0
280
     0
281
     0
  0
ENDSEC
  0
SECTION
  2
TABLES
  0
TABLE
  2
VPORT
  5
8
330
0
100
AcDbSymbolTable
 70
     1
  0
VPORT
  5
29
330
8
100
AcDbSymbolTableRecord
100
AcDbViewportTableRecord
  2
*Active
 70
     0
 10
0.0
 20
0.0
 11
1.0
 21
1.0
 12
10.795
 22
13.97
 13
0.0
 23
0.0
 14
10.0
 24
10.0
 15
10.0
 25
10.0
 16
0.0
 26
0.0
 36
1.0
 17
0.0
 27
0.0
 37
0.0
 40
27.94
 41
0.7727272727
 42
50.0
 43
0.0
 44
0.0
 50
0.0
 51
0.0
 71
     0
 72
  2000
 73
     1
 74
     3
 75
     0
 76
     0
 77
     0
 78
     0
281
     0
 65
     1
110
0.0
120
0.0
130
0.0
111
1.0
121
0.0
131
0.0
112
0.0
122
1.0
132
0.0
 79
     0
146
0.0
  0
ENDTAB
  0
TABLE
  2
LTYPE
  5
5
330
0
100
AcDbSymbolTable
 70
     6
  0
LTYPE
  5
14
330
5
100
AcDbSymbolTableRecord
100
AcDbLinetypeTableRecord
  2
ByBlock
 70
     0
  3

 72
    65
 73
     0
 40
0.0
  0
LTYPE
  5
15
330
5
100
AcDbSymbolTableRecord
100
AcDbLinetypeTableRecord
  2
ByLayer
 70
     0
  3

 72
    65
 73
     0
 40
0.0
  0
LTYPE
  5
16
330
5
100
AcDbSymbolTableRecord
100
AcDbLinetypeTableRecord
  2
Continuous
 70
     0
  3
Solid line
 72
    65
 73
     0
 40
0.0
  0
LTYPE
  5
6A
330
5
100
AcDbSymbolTableRecord
100
AcDbLinetypeTableRecord
  2
HIDDEN
 70
     0
  3
Hidden __ __ __ __ __ __ __ __ __ __ __ __ __ __
 72
    65
 73
     2
 40
0.1905
 49
0.127
 74
     0
 49
-0.0635
 74
     0
  0
LTYPE
  5
6B
330
5
100
AcDbSymbolTableRecord
100
AcDbLinetypeTableRecord
  2
PHANTOM
 70
     0
  3
Phantom ______  __  __  ______  __  __  ______
 72
    65
 73
     6
 40
1.27
 49
0.635
 74
     0
 49
-0.127
 74
     0
 49
0.127
 74
     0
 49
-0.127
 74
     0
 49
0.127
 74
     0
 49
-0.127
 74
     0
  0
LTYPE
  5
6C
330
5
100
AcDbSymbolTableRecord
100
AcDbLinetypeTableRecord
  2
CENTER
 70
     0
  3
Center ____ _ ____ _ ____ _ ____ _ ____ _ ____
 72
    65
 73
     4
 40
1.016
 49
0.635
 74
     0
 49
-0.127
 74
     0
 49
0.127
 74
     0
 49
-0.127
 74
     0
  0
LTYPE
  5
6D
330
5
100
AcDbSymbolTableRecord
100
AcDbLinetypeTableRecord
  2
CENTERX2
 70
     0
  3
Center (2x) ________  __  ________  __  _____
 72
    65
 73
     4
 40
2.032
 49
1.27
 74
     0
 49
-0.254
 74
     0
 49
0.254
 74
     0
 49
-0.254
 74
     0
  0
LTYPE
  5
6E
330
5
100
AcDbSymbolTableRecord
100
AcDbLinetypeTableRecord
  2
DOT2
 70
     0
  3
Dot (.5x) ........................................
 72
    65
 73
     2
 40
0.0635
 49
0.0
 74
     0
 49
-0.0635
 74
     0
  0
ENDTAB
  0
TABLE
  2
LAYER
  5
2
330
0
100
AcDbSymbolTable
 70
     2
  0
LAYER
  5
10
330
2
100
AcDbSymbolTableRecord
100
AcDbLayerTableRecord
  2
0
 70
     0
 62
     7
  6
Continuous
370
    -3
390
F
  0
LAYER
  5
6F
330
2
100
AcDbSymbolTableRecord
100
AcDbLayerTableRecord
  2
FORMAT
 70
     0
 62
     7
  6
Continuous
370
    -3
390
F
  0
ENDTAB
  0
TABLE
  2
STYLE
  5
3
330
0
100
AcDbSymbolTable
 70
     6
  0
STYLE
  5
11
330
3
100
AcDbSymbolTableRecord
100
AcDbTextStyleTableRecord
  2
Standard
 70
     0
 40
0.0
 41
1.0
 50
0.0
 71
     0
 42
0.3175
  3
txt
  4

  0
STYLE
  5
89
330
3
100
AcDbSymbolTableRecord
100
AcDbTextStyleTableRecord
  2
SLDTEXTSTYLE0
 70
     0
 40
0.0
 41
0.75
 50
0.0
 71
     0
 42
0.3175
  3
TXT
  4

  0
STYLE
  5
8E
330
3
100
AcDbSymbolTableRecord
100
AcDbTextStyleTableRecord
  2
SLDTEXTSTYLE1
 70
     0
 40
0.0
 41
0.663
 50
0.0
 71
     0
 42
0.3175
  3
TXT
  4

  0
STYLE
  5
94
330
3
100
AcDbSymbolTableRecord
100
AcDbTextStyleTableRecord
  2
SLDTEXTSTYLE2
 70
     0
 40
0.0
 41
0.6875
 50
0.0
 71
     0
 42
0.3175
  3
TXT
  4

  0
STYLE
  5
A4
330
3
100
AcDbSymbolTableRecord
100
AcDbTextStyleTableRecord
  2
SLDTEXTSTYLE3
 70
     0
 40
0.0
 41
0.6847826087
 50
0.0
 71
     0
 42
0.3175
  3
TXT
  4

  0
STYLE
  5
AA
330
3
100
AcDbSymbolTableRecord
100
AcDbTextStyleTableRecord
  2
SLDTEXTSTYLE4
 70
     0
 40
0.0
 41
0.6944444444
 50
0.0
 71
     0
 42
0.3175
  3
TXT
  4

  0
ENDTAB
  0
TABLE
  2
VIEW
  5
6
330
0
100
AcDbSymbolTable
 70
     0
  0
ENDTAB
  0
TABLE
  2
UCS
  5
7
330
0
100
AcDbSymbolTable
 70
     0
  0
ENDTAB
  0
TABLE
  2
APPID
  5
9
330
0
100
AcDbSymbolTable
 70
     1
  0
APPID
  5
12
330
9
100
AcDbSymbolTableRecord
100
AcDbRegAppTableRecord
  2
ACAD
 70
     0
  0
ENDTAB
  0
TABLE
  2
DIMSTYLE
  5
A
330
0
100
AcDbSymbolTable
 70
     5
100
AcDbDimStyleTable
  0
DIMSTYLE
105
27
330
A
100
AcDbSymbolTableRecord
100
AcDbDimStyleTableRecord
  2
ISO-25
 70
     0
 41
2.5
 42
0.625
 43
3.75
 44
1.25
 73
     0
 74
     0
 77
     1
 78
     8
140
2.5
141
2.5
143
0.0393700787
147
0.625
171
     3
172
     1
178
     0
271
     2
272
     2
274
     3
278
    44
283
     0
284
     8
340
11
  0
DIMSTYLE
105
B7
102
{ACAD_REACTORS
330
B6
330
ED
330
116
102
}
330
A
100
AcDbSymbolTableRecord
100
AcDbDimStyleTableRecord
  2
SLDDIMSTYLE0
 70
     0
 41
0.3302
 44
0.0
 45
0.000000001
 78
    12
 79
     3
140
0.3175
143
0.3937007874
144
5.0
147
0.079375
148
0.000000001
170
     1
173
     1
178
     0
271
     2
272
     2
276
     2
284
    12
340
89
  0
DIMSTYLE
105
CC
102
{ACAD_REACTORS
330
CB
102
}
330
A
100
AcDbSymbolTableRecord
100
AcDbDimStyleTableRecord
  2
SLDDIMSTYLE1
 70
     0
 41
0.3302
 44
0.0
 45
0.000000001
 78
     8
 79
     2
140
0.3175
141
0.0
143
0.3937007874
144
5.0
147
0.079375
148
0.000000001
170
     1
173
     1
178
     0
271
     2
272
     2
276
     2
284
    12
340
89
  0
DIMSTYLE
105
D8
102
{ACAD_REACTORS
330
D7
330
101
330
18C
330
1A0
102
}
330
A
100
AcDbSymbolTableRecord
100
AcDbDimStyleTableRecord
  2
SLDDIMSTYLE2
 70
     0
 41
0.3302
 44
0.0
 45
0.000000001
 78
    12
 79
     3
140
0.3175
143
0.3937007874
144
5.0
147
0.079375
148
0.000000001
170
     1
172
     1
173
     1
178
     0
271
     2
272
     2
276
     2
284
    12
289
     0
340
89
  0
DIMSTYLE
105
164
102
{ACAD_REACTORS
330
163
330
1B5
102
}
330
A
100
AcDbSymbolTableRecord
100
AcDbDimStyleTableRecord
  2
SLDDIMSTYLE3
 70
     0
 41
0.3302
 44
0.0
 45
0.000000001
140
0.3175
141
0.0
143
0.3937007874
144
5.0
147
0.079375
148
0.000000001
170
     1
173
     1
178
     0
271
     2
272
     2
276
     2
284
    12
340
89
  0
ENDTAB
  0
TABLE
  2
BLOCK_RECORD
  5
1
330
0
100
AcDbSymbolTable
 70
    19
  0
BLOCK_RECORD
  5
1F
330
1
100
AcDbSymbolTableRecord
100
AcDbBlockTableRecord
  2
*Model_Space
340
22
  0
BLOCK_RECORD
  5
1B
330
1
100
AcDbSymbolTableRecord
100
AcDbBlockTableRecord
  2
*Paper_Space
340
1E
  0
BLOCK_RECORD
  5
23
330
1
100
AcDbSymbolTableRecord
100
AcDbBlockTableRecord
  2
*Paper_Space0
340
26
  0
BLOCK_RECORD
  5
9D
330
1
100
AcDbSymbolTableRecord
100
AcDbBlockTableRecord
  2
SW_NOTE_0
340
0
102
{BLKREFS
331
A3
102
}
  0
BLOCK_RECORD
  5
B8
330
1
100
AcDbSymbolTableRecord
100
AcDbBlockTableRecord
  2
_D
340
0
  0
BLOCK_RECORD
  5
CD
330
1
100
AcDbSymbolTableRecord
100
AcDbBlockTableRecord
  2
_D_1
340
0
  0
BLOCK_RECORD
  5
D9
330
1
100
AcDbSymbolTableRecord
100
AcDbBlockTableRecord
  2
_D_2
340
0
  0
BLOCK_RECORD
  5
EE
330
1
100
AcDbSymbolTableRecord
100
AcDbBlockTableRecord
  2
_D_3
340
0
  0
BLOCK_RECORD
  5
102
330
1
100
AcDbSymbolTableRecord
100
AcDbBlockTableRecord
  2
_D_4
340
0
  0
BLOCK_RECORD
  5
117
330
1
100
AcDbSymbolTableRecord
100
AcDbBlockTableRecord
  2
_D_5
340
0
  0
BLOCK_RECORD
  5
12A
330
1
100
AcDbSymbolTableRecord
100
AcDbBlockTableRecord
  2
SW_CENTERMARKSYMBOL_0
340
0
102
{BLKREFS
331
135
102
}
  0
BLOCK_RECORD
  5
136
330
1
100
AcDbSymbolTableRecord
100
AcDbBlockTableRecord
  2
SW_CENTERMARKSYMBOL_1
340
0
102
{BLKREFS
331
141
102
}
  0
BLOCK_RECORD
  5
142
330
1
100
AcDbSymbolTableRecord
100
AcDbBlockTableRecord
  2
SW_CENTERMARKSYMBOL_2
340
0
102
{BLKREFS
331
14D
102
}
  0
BLOCK_RECORD
  5
14E
330
1
100
AcDbSymbolTableRecord
100
AcDbBlockTableRecord
  2
SW_CENTERMARKSYMBOL_3
340
0
102
{BLKREFS
331
159
102
}
  0
BLOCK_RECORD
  5
165
330
1
100
AcDbSymbolTableRecord
100
AcDbBlockTableRecord
  2
_D_6
340
0
  0
BLOCK_RECORD
  5
16D
330
1
100
AcDbSymbolTableRecord
100
AcDbBlockTableRecord
  2
SW_SYMBOL_HOLE_DEPTH
340
0
102
{BLKREFS
331
174
331
177
331
1BE
331
1C1
102
}
  0
BLOCK_RECORD
  5
179
330
1
100
AcDbSymbolTableRecord
100
AcDbBlockTableRecord
  2
SW_CENTERMARKSYMBOL_4
340
0
102
{BLKREFS
331
184
102
}
  0
BLOCK_RECORD
  5
18D
330
1
100
AcDbSymbolTableRecord
100
AcDbBlockTableRecord
  2
_D_7
340
0
  0
BLOCK_RECORD
  5
1A1
330
1
100
AcDbSymbolTableRecord
100
AcDbBlockTableRecord
  2
_D_8
340
0
  0
BLOCK_RECORD
  5
1B6
330
1
100
AcDbSymbolTableRecord
100
AcDbBlockTableRecord
  2
_D_9
340
0
  0
BLOCK_RECORD
  5
1C3
330
1
100
AcDbSymbolTableRecord
100
AcDbBlockTableRecord
  2
SW_CENTERMARKSYMBOL_5
340
0
102
{BLKREFS
331
1CE
102
}
  0
ENDTAB
  0
ENDSEC
  0
SECTION
  2
BLOCKS
  0
BLOCK
  5
20
330
1F
100
AcDbEntity
  8
0
100
AcDbBlockBegin
  2
*Model_Space
 70
     0
 10
0.0
 20
0.0
 30
0.0
  3
*Model_Space
  1
*Model_Space
  0
ENDBLK
  5
21
330
1F
100
AcDbEntity
  8
0
100
AcDbBlockEnd
  0
BLOCK
  5
1C
330
1B
100
AcDbEntity
 67
     1
  8
0
100
AcDbBlockBegin
  2
*Paper_Space
 70
     0
 10
0.0
 20
0.0
 30
0.0
  3
*Paper_Space
  1
*Paper_Space
  0
ENDBLK
  5
1D
330
1B
100
AcDbEntity
 67
     1
  8
0
100
AcDbBlockEnd
  0
BLOCK
  5
24
330
23
100
AcDbEntity
  8
0
100
AcDbBlockBegin
  2
*Paper_Space0
 70
     0
 10
0.0
 20
0.0
 30
0.0
  3
*Paper_Space0
  1
*Paper_Space0
  0
ENDBLK
  5
25
330
23
100
AcDbEntity
  8
0
100
AcDbBlockEnd
  0
BLOCK
  5
9E
330
9D
100
AcDbEntity
  8
0
100
AcDbBlockBegin
  2
SW_NOTE_0
 70
     0
 10
0.0
 20
0.0
 30
0.0
  3
SW_NOTE_0
  1
SW_NOTE_0
  0
MTEXT
  5
A0
330
9D
100
AcDbEntity
  8
0
  6
Continuous
 62
     0
370
     0
100
AcDbMText
 10
0.0
 20
0.2046395037
 30
0.0
 40
0.15875
 41
0.0
 71
     1
 72
     1
  1
DIMENSIONS ARE IN
  7
SLDTEXTSTYLE0
 73
     1
 44
1.0
  0
MTEXT
  5
A1
330
9D
100
AcDbEntity
  8
0
  6
Continuous
 62
     0
370
     0
100
AcDbMText
 10
0.0
 20
-0.0541104991
 30
0.0
 40
0.15875
 41
0.0
 71
     1
 72
     1
  1
CENTIMETERS [INCHES]
  7
SLDTEXTSTYLE0
 73
     1
 44
1.0
  0
MTEXT
  5
A2
330
9D
100
AcDbEntity
  8
0
  6
Continuous
 62
     0
370
     0
100
AcDbMText
 10
0.0
 20
-0.5716105048
 30
0.0
 40
0.15875
 41
0.0
 71
     1
 72
     1
  1
TOLERANCES: 10 MILS
  7
SLDTEXTSTYLE0
 73
     1
 44
1.0
  0
ENDBLK
  5
9F
330
9D
100
AcDbEntity
  8
0
100
AcDbBlockEnd
  0
BLOCK
  5
B9
330
B8
100
AcDbEntity
  8
0
100
AcDbBlockBegin
  2
_D
 70
     0
 10
0.0
 20
0.0
 30
0.0
  3
_D
  1
_D
  0
SOLID
  5
BB
330
B8
100
AcDbEntity
  8
0
  6
Continuous
 62
     7
370
     0
100
AcDbTrace
 10
3.3948913609
 20
22.4437105325
 30
0.0
 11
3.3440913609
 21
22.1135105325
 31
0.0
 12
3.4456913609
 22
22.1135105325
 32
0.0
 13
3.4456913609
 23
22.1135105325
 33
0.0
  0
SOLID
  5
BC
330
B8
100
AcDbEntity
  8
0
  6
Continuous
 62
     7
370
     0
100
AcDbTrace
 10
3.3948913609
 20
10.2517105325
 30
0.0
 11
3.4456913609
 21
10.5819105325
 31
0.0
 12
3.3440913609
 22
10.5819105325
 32
0.0
 13
3.3440913609
 23
10.5819105325
 33
0.0
  0
LINE
  5
BD
330
B8
100
AcDbEntity
  8
0
  6
Continuous
 62
     7
370
     0
100
AcDbLine
 10
2.7864323856
 20
15.315051151
 30
0.0
 11
2.7219402007
 21
15.315051151
 31
0.0
  0
LINE
  5
BE
330
B8
100
AcDbEntity
  8
0
  6
Continuous
 62
     7
370
     0
100
AcDbLine
 10
2.7219402007
 20
15.315051151
 30
0.0
 11
2.7219402007
 21
14.8110198859
 31
0.0
  0
LINE
  5
BF
330
B8
100
AcDbEntity
  8
0
  6
Continuous
 62
     7
370
     0
100
AcDbLine
 10
2.7219402007
 20
14.8110198859
 30
0.0
 11
2.7864323856
 21
14.8110198859
 31
0.0
  0
LINE
  5
C0
330
B8
100
AcDbEntity
  8
0
  6
Continuous
 62
     7
370
     0
100
AcDbLine
 10
4.0033503363
 20
15.315051151
 30
0.0
 11
4.0678425212
 21
15.315051151
 31
0.0
  0
LINE
  5
C1
330
B8
100
AcDbEntity
  8
0
  6
Continuous
 62
     7
370
     0
100
AcDbLine
 10
4.0678425212
 20
15.315051151
 30
0.0
 11
4.0678425212
 21
14.8110198859
 31
0.0
  0
LINE
  5
C2
330
B8
100
AcDbEntity
  8
0
  6
Continuous
 62
     7
370
     0
100
AcDbLine
 10
4.0678425212
 20
14.8110198859
 30
0.0
 11
4.0033503363
 21
14.8110198859
 31
0.0
  0
LINE
  5
C3
330
B8
100
AcDbEntity
  8
0
  6
Continuous
 62
     7
370
     0
100
AcDbLine
 10
4.2678913609
 20
22.4437105325
 30
0.0
 11
3.0773913609
 21
22.4437105325
 31
0.0
  0
LINE
  5
C4
330
B8
100
AcDbEntity
  8
0
  6
Continuous
 62
     7
370
     0
100
AcDbLine
 10
4.2678913609
 20
10.2517105325
 30
0.0
 11
3.0773913609
 21
10.2517105325
 31
0.0
  0
LINE
  5
C5
330
B8
100
AcDbEntity
  8
0
  6
Continuous
 62
     7
370
     0
100
AcDbLine
 10
3.3948913609
 20
22.4437105325
 30
0.0
 11
3.3948913609
 21
15.3795433301
 31
0.0
  0
LINE
  5
C6
330
B8
100
AcDbEntity
  8
0
  6
Continuous
 62
     7
370
     0
100
AcDbLine
 10
3.3948913609
 20
10.2517105325
 30
0.0
 11
3.3948913609
 21
14.3359826017
 31
0.0
  0
MTEXT
  5
C7
330
B8
100
AcDbEntity
  8
0
  6
Continuous
 62
     7
370
     0
100
AcDbMText
 10
2.6753349491
 20
14.7501122514
 30
0.0
 40
0.3175
 41
0.0
 71
     1
 72
     1
  1

  7
SLDTEXTSTYLE0
 73
     1
 44
1.0
  0
MTEXT
  5
C8
330
B8
100
AcDbEntity
  8
0
  6
Continuous
 62
     7
370
     0
100
AcDbMText
 10
2.8670476211
 20
15.2202989282
 30
0.0
 40
0.3175
 41
0.0
 71
     1
 72
     1
  1
24.00
  7
SLDTEXTSTYLE0
 73
     1
 44
1.0
  0
MTEXT
  5
C9
330
B8
100
AcDbEntity
  8
0
  6
Continuous
 62
     7
370
     0
100
AcDbMText
 10
2.8670475978
 20
14.74526158
 30
0.0
 40
0.3175
 41
0.0
 71
     1
 72
     1
  1
60.96
  7
SLDTEXTSTYLE0
 73
     1
 44
1.0
  0
MTEXT
  5
CA
330
B8
100
AcDbEntity
  8
0
  6
Continuous
 62
     7
370
     0
100
AcDbMText
 10
4.2352740915
 20
14.7501122514
 30
0.0
 40
0.3175
 41
0.0
 71
     1
 72
     1
  1

  7
SLDTEXTSTYLE0
 73
     1
 44
1.0
  0
ENDBLK
  5
BA
330
B8
100
AcDbEntity
  8
0
100
AcDbBlockEnd
  0
BLOCK
  5
CE
330
CD
100
AcDbEntity
  8
0
100
AcDbBlockBegin
  2
_D_1
 70
     0
 10
0.0
 20
0.0
 30
0.0
  3
_D_1
  1
_D_1
  0
SOLID
  5
D0
330
CD
100
AcDbEntity
  8
0
  6
Continuous
 62
     7
370
     0
100
AcDbTrace
 10
4.5429456895
 20
15.5679960478
 30
0.0
 11
4.8689770623
 21
15.6409084879
 31
0.0
 12
4.8319845891
 22
15.7355346837
 32
0.0
 13
4.8319845891
 23
15.7355346837
 33
0.0
  0
LINE
  5
D1
330
CD
100
AcDbEntity
  8
0
  6
Continuous
 62
     7
370
     0
100
AcDbLine
 10
4.5429456895
 20
15.5679960478
 30
0.0
 11
6.6552683315
 21
16.3937720199
 31
0.0
  0
LINE
  5
D2
330
CD
100
AcDbEntity
  8
0
  6
Continuous
 62
     7
370
     0
100
AcDbLine
 10
6.6552683315
 20
16.3937720199
 30
0.0
 11
7.2108933315
 21
16.3937720199
 31
0.0
  0
MTEXT
  5
D3
330
CD
100
AcDbEntity
  8
0
  6
Continuous
 62
     7
370
     0
100
AcDbMText
 10
7.7828674325
 20
16.8054763659
 30
0.0
 40
0.3175
 41
0.0
 71
     1
 72
     1
  1
4X
  7
SLDTEXTSTYLE0
 73
     1
 44
1.0
  0
MTEXT
  5
D4
330
CD
100
AcDbEntity
  8
0
  6
Continuous
 62
     7
370
     0
100
AcDbMText
 10
8.3927320065
 20
16.8006256712
 30
0.0
 40
0.3175
 41
0.0
 71
     1
 72
     1
  1
%%c
  7
SLDTEXTSTYLE0
 73
     1
 44
1.0
  0
MTEXT
  5
D5
330
CD
100
AcDbEntity
  8
0
  6
Continuous
 62
     7
370
     0
100
AcDbMText
 10
8.9906242293
 20
16.8054763659
 30
0.0
 40
0.3175
 41
0.0
 71
     1
 72
     1
  1
0.23[0.09] THRU ALL
  7
SLDTEXTSTYLE0
 73
     1
 44
1.0
  0
MTEXT
  5
D6
330
CD
100
AcDbEntity
  8
0
  6
Continuous
 62
     7
370
     0
100
AcDbMText
 10
7.3696433315
 20
16.2965944468
 30
0.0
 40
0.3175
 41
0.0
 71
     1
 72
     1
  1
#4-40 UNC  TAPPED THRU ALL
  7
SLDTEXTSTYLE0
 73
     1
 44
1.0
  0
ENDBLK
  5
CF
330
CD
100
AcDbEntity
  8
0
100
AcDbBlockEnd
  0
BLOCK
  5
DA
330
D9
100
AcDbEntity
  8
0
100
AcDbBlockBegin
  2
_D_2
 70
     0
 10
0.0
 20
0.0
 30
0.0
  3
_D_2
  1
_D_2
  0
SOLID
  5
DC
330
D9
100
AcDbEntity
  8
0
  6
Continuous
 62
     7
370
     0
100
AcDbTrace
 10
5.6488913609
 20
10.2517105325
 30
0.0
 11
5.5980913609
 21
9.9215105325
 31
0.0
 12
5.6996913609
 22
9.9215105325
 32
0.0
 13
5.6996913609
 23
9.9215105325
 33
0.0
  0
SOLID
  5
DD
330
D9
100
AcDbEntity
  8
0
  6
Continuous
 62
     7
370
     0
100
AcDbTrace
 10
5.6488913609
 20
10.6067652225
 30
0.0
 11
5.6996913609
 21
10.9369652225
 31
0.0
 12
5.5980913609
 22
10.9369652225
 32
0.0
 13
5.5980913609
 23
10.9369652225
 33
0.0
  0
LINE
  5
DE
330
D9
100
AcDbEntity
  8
0
  6
Continuous
 62
     7
370
     0
100
AcDbLine
 10
6.7073447711
 20
10.0881660003
 30
0.0
 11
6.6428525862
 21
10.0881660003
 31
0.0
  0
LINE
  5
DF
330
D9
100
AcDbEntity
  8
0
  6
Continuous
 62
     7
370
     0
100
AcDbLine
 10
6.6428525862
 20
10.0881660003
 30
0.0
 11
6.6428525862
 21
9.5841347352
 31
0.0
  0
LINE
  5
E0
330
D9
100
AcDbEntity
  8
0
  6
Continuous
 62
     7
370
     0
100
AcDbLine
 10
6.6428525862
 20
9.5841347352
 30
0.0
 11
6.7073447711
 21
9.5841347352
 31
0.0
  0
LINE
  5
E1
330
D9
100
AcDbEntity
  8
0
  6
Continuous
 62
     7
370
     0
100
AcDbLine
 10
7.455068276
 20
10.0881660003
 30
0.0
 11
7.5195604609
 21
10.0881660003
 31
0.0
  0
LINE
  5
E2
330
D9
100
AcDbEntity
  8
0
  6
Continuous
 62
     7
370
     0
100
AcDbLine
 10
7.5195604609
 20
10.0881660003
 30
0.0
 11
7.5195604609
 21
9.5841347352
 31
0.0
  0
LINE
  5
E3
330
D9
100
AcDbEntity
  8
0
  6
Continuous
 62
     7
370
     0
100
AcDbLine
 10
7.5195604609
 20
9.5841347352
 30
0.0
 11
7.455068276
 21
9.5841347352
 31
0.0
  0
LINE
  5
E4
330
D9
100
AcDbEntity
  8
0
  6
Continuous
 62
     7
370
     0
100
AcDbLine
 10
4.7758913609
 20
10.2517105325
 30
0.0
 11
5.9663913609
 21
10.2517105325
 31
0.0
  0
LINE
  5
E5
330
D9
100
AcDbEntity
  8
0
  6
Continuous
 62
     7
370
     0
100
AcDbLine
 10
4.7222973609
 20
10.6067652225
 30
0.0
 11
5.9663913609
 21
10.6067652225
 31
0.0
  0
LINE
  5
E6
330
D9
100
AcDbEntity
  8
0
  6
Continuous
 62
     7
370
     0
100
AcDbLine
 10
6.2838913609
 20
9.6308778152
 30
0.0
 11
5.6488913609
 21
9.6308778152
 31
0.0
  0
LINE
  5
E7
330
D9
100
AcDbEntity
  8
0
  6
Continuous
 62
     7
370
     0
100
AcDbLine
 10
5.6488913609
 20
9.6308778152
 30
0.0
 11
5.6488913609
 21
10.2517105325
 31
0.0
  0
LINE
  5
E8
330
D9
100
AcDbEntity
  8
0
  6
Continuous
 62
     7
370
     0
100
AcDbLine
 10
5.6488913609
 20
10.6067652225
 30
0.0
 11
5.6488913609
 21
11.2417652225
 31
0.0
  0
MTEXT
  5
E9
330
D9
100
AcDbEntity
  8
0
  6
Continuous
 62
     7
370
     0
100
AcDbMText
 10
6.5962473346
 20
9.5232271006
 30
0.0
 40
0.3175
 41
0.0
 71
     1
 72
     1
  1

  7
SLDTEXTSTYLE0
 73
     1
 44
1.0
  0
MTEXT
  5
EA
330
D9
100
AcDbEntity
  8
0
  6
Continuous
 62
     7
370
     0
100
AcDbMText
 10
6.7879600066
 20
9.9934137775
 30
0.0
 40
0.3175
 41
0.0
 71
     1
 72
     1
  1
.70
  7
SLDTEXTSTYLE0
 73
     1
 44
1.0
  0
MTEXT
  5
EB
330
D9
100
AcDbEntity
  8
0
  6
Continuous
 62
     7
370
     0
100
AcDbMText
 10
6.6706613486
 20
9.5183764292
 30
0.0
 40
0.3175
 41
0.0
 71
     1
 72
     1
  1
1.78
  7
SLDTEXTSTYLE0
 73
     1
 44
1.0
  0
MTEXT
  5
EC
330
D9
100
AcDbEntity
  8
0
  6
Continuous
 62
     7
370
     0
100
AcDbMText
 10
7.6869920312
 20
9.5232271006
 30
0.0
 40
0.3175
 41
0.0
 71
     1
 72
     1
  1

  7
SLDTEXTSTYLE0
 73
     1
 44
1.0
  0
ENDBLK
  5
DB
330
D9
100
AcDbEntity
  8
0
100
AcDbBlockEnd
  0
BLOCK
  5
EF
330
EE
100
AcDbEntity
  8
0
100
AcDbBlockBegin
  2
_D_3
 70
     0
 10
0.0
 20
0.0
 30
0.0
  3
_D_3
  1
_D_3
  0
SOLID
  5
F1
330
EE
100
AcDbEntity
  8
0
  6
Continuous
 62
     7
370
     0
100
AcDbTrace
 10
6.6176404516
 20
10.2517105325
 30
0.0
 11
6.6684404516
 21
10.5819105325
 31
0.0
 12
6.5668404516
 22
10.5819105325
 32
0.0
 13
6.5668404516
 23
10.5819105325
 33
0.0
  0
SOLID
  5
F2
330
EE
100
AcDbEntity
  8
0
  6
Continuous
 62
     7
370
     0
100
AcDbTrace
 10
6.6176404516
 20
15.5597652225
 30
0.0
 11
6.5668404516
 21
15.2295652225
 31
0.0
 12
6.6684404516
 22
15.2295652225
 32
0.0
 13
6.6684404516
 23
15.2295652225
 33
0.0
  0
LINE
  5
F3
330
EE
100
AcDbEntity
  8
0
  6
Continuous
 62
     7
370
     0
100
AcDbLine
 10
6.0091814762
 20
13.3997266667
 30
0.0
 11
5.9446892913
 21
13.3997266667
 31
0.0
  0
LINE
  5
F4
330
EE
100
AcDbEntity
  8
0
  6
Continuous
 62
     7
370
     0
100
AcDbLine
 10
5.9446892913
 20
13.3997266667
 30
0.0
 11
5.9446892913
 21
12.8956954015
 31
0.0
  0
LINE
  5
F5
330
EE
100
AcDbEntity
  8
0
  6
Continuous
 62
     7
370
     0
100
AcDbLine
 10
5.9446892913
 20
12.8956954015
 30
0.0
 11
6.0091814762
 21
12.8956954015
 31
0.0
  0
LINE
  5
F6
330
EE
100
AcDbEntity
  8
0
  6
Continuous
 62
     7
370
     0
100
AcDbLine
 10
7.2260994269
 20
13.3997266667
 30
0.0
 11
7.2905916118
 21
13.3997266667
 31
0.0
  0
LINE
  5
F7
330
EE
100
AcDbEntity
  8
0
  6
Continuous
 62
     7
370
     0
100
AcDbLine
 10
7.2905916118
 20
13.3997266667
 30
0.0
 11
7.2905916118
 21
12.8956954015
 31
0.0
  0
LINE
  5
F8
330
EE
100
AcDbEntity
  8
0
  6
Continuous
 62
     7
370
     0
100
AcDbLine
 10
7.2905916118
 20
12.8956954015
 30
0.0
 11
7.2260994269
 21
12.8956954015
 31
0.0
  0
LINE
  5
F9
330
EE
100
AcDbEntity
  8
0
  6
Continuous
 62
     7
370
     0
100
AcDbLine
 10
4.7758913609
 20
10.2517105325
 30
0.0
 11
6.9351404516
 21
10.2517105325
 31
0.0
  0
LINE
  5
FA
330
EE
100
AcDbEntity
  8
0
  6
Continuous
 62
     7
370
     0
100
AcDbLine
 10
4.7222973609
 20
15.5597652225
 30
0.0
 11
6.9351404516
 21
15.5597652225
 31
0.0
  0
LINE
  5
FB
330
EE
100
AcDbEntity
  8
0
  6
Continuous
 62
     7
370
     0
100
AcDbLine
 10
6.6176404516
 20
10.2517105325
 30
0.0
 11
6.6176404516
 21
12.4206581174
 31
0.0
  0
LINE
  5
FC
330
EE
100
AcDbEntity
  8
0
  6
Continuous
 62
     7
370
     0
100
AcDbLine
 10
6.6176404516
 20
15.5597652225
 30
0.0
 11
6.6176404516
 21
13.4642188458
 31
0.0
  0
MTEXT
  5
FD
330
EE
100
AcDbEntity
  8
0
  6
Continuous
 62
     7
370
     0
100
AcDbMText
 10
5.8980840398
 20
12.834787767
 30
0.0
 40
0.3175
 41
0.0
 71
     1
 72
     1
  1

  7
SLDTEXTSTYLE0
 73
     1
 44
1.0
  0
MTEXT
  5
FE
330
EE
100
AcDbEntity
  8
0
  6
Continuous
 62
     7
370
     0
100
AcDbMText
 10
6.0897967117
 20
13.3049744439
 30
0.0
 40
0.3175
 41
0.0
 71
     1
 72
     1
  1
10.45
  7
SLDTEXTSTYLE0
 73
     1
 44
1.0
  0
MTEXT
  5
FF
330
EE
100
AcDbEntity
  8
0
  6
Continuous
 62
     7
370
     0
100
AcDbMText
 10
6.0897966885
 20
12.8299370956
 30
0.0
 40
0.3175
 41
0.0
 71
     1
 72
     1
  1
26.54
  7
SLDTEXTSTYLE0
 73
     1
 44
1.0
  0
MTEXT
  5
100
330
EE
100
AcDbEntity
  8
0
  6
Continuous
 62
     7
370
     0
100
AcDbMText
 10
7.4580231821
 20
12.834787767
 30
0.0
 40
0.3175
 41
0.0
 71
     1
 72
     1
  1

  7
SLDTEXTSTYLE0
 73
     1
 44
1.0
  0
ENDBLK
  5
F0
330
EE
100
AcDbEntity
  8
0
100
AcDbBlockEnd
  0
BLOCK
  5
103
330
102
100
AcDbEntity
  8
0
100
AcDbBlockBegin
  2
_D_4
 70
     0
 10
0.0
 20
0.0
 30
0.0
  3
_D_4
  1
_D_4
  0
SOLID
  5
105
330
102
100
AcDbEntity
  8
0
  6
Continuous
 62
     7
370
     0
100
AcDbTrace
 10
5.6488913609
 20
22.4437105325
 30
0.0
 11
5.6996913609
 21
22.7739105325
 31
0.0
 12
5.5980913609
 22
22.7739105325
 32
0.0
 13
5.5980913609
 23
22.7739105325
 33
0.0
  0
SOLID
  5
106
330
102
100
AcDbEntity
  8
0
  6
Continuous
 62
     7
370
     0
100
AcDbTrace
 10
5.6488913609
 20
22.0886558426
 30
0.0
 11
5.5980913609
 21
21.7584558426
 31
0.0
 12
5.6996913609
 22
21.7584558426
 32
0.0
 13
5.6996913609
 23
21.7584558426
 33
0.0
  0
LINE
  5
107
330
102
100
AcDbEntity
  8
0
  6
Continuous
 62
     7
370
     0
100
AcDbLine
 10
6.7073447711
 20
23.9009987177
 30
0.0
 11
6.6428525862
 21
23.9009987177
 31
0.0
  0
LINE
  5
108
330
102
100
AcDbEntity
  8
0
  6
Continuous
 62
     7
370
     0
100
AcDbLine
 10
6.6428525862
 20
23.9009987177
 30
0.0
 11
6.6428525862
 21
23.3969674525
 31
0.0
  0
LINE
  5
109
330
102
100
AcDbEntity
  8
0
  6
Continuous
 62
     7
370
     0
100
AcDbLine
 10
6.6428525862
 20
23.3969674525
 30
0.0
 11
6.7073447711
 21
23.3969674525
 31
0.0
  0
LINE
  5
10A
330
102
100
AcDbEntity
  8
0
  6
Continuous
 62
     7
370
     0
100
AcDbLine
 10
7.455068276
 20
23.9009987177
 30
0.0
 11
7.5195604609
 21
23.9009987177
 31
0.0
  0
LINE
  5
10B
330
102
100
AcDbEntity
  8
0
  6
Continuous
 62
     7
370
     0
100
AcDbLine
 10
7.5195604609
 20
23.9009987177
 30
0.0
 11
7.5195604609
 21
23.3969674525
 31
0.0
  0
LINE
  5
10C
330
102
100
AcDbEntity
  8
0
  6
Continuous
 62
     7
370
     0
100
AcDbLine
 10
7.5195604609
 20
23.3969674525
 30
0.0
 11
7.455068276
 21
23.3969674525
 31
0.0
  0
LINE
  5
10D
330
102
100
AcDbEntity
  8
0
  6
Continuous
 62
     7
370
     0
100
AcDbLine
 10
4.7758913609
 20
22.4437105325
 30
0.0
 11
5.9663913609
 21
22.4437105325
 31
0.0
  0
LINE
  5
10E
330
102
100
AcDbEntity
  8
0
  6
Continuous
 62
     7
370
     0
100
AcDbLine
 10
4.7222973609
 20
22.0886558426
 30
0.0
 11
5.9663913609
 21
22.0886558426
 31
0.0
  0
LINE
  5
10F
330
102
100
AcDbEntity
  8
0
  6
Continuous
 62
     7
370
     0
100
AcDbLine
 10
6.2838913609
 20
23.4437105325
 30
0.0
 11
5.6488913609
 21
23.4437105325
 31
0.0
  0
LINE
  5
110
330
102
100
AcDbEntity
  8
0
  6
Continuous
 62
     7
370
     0
100
AcDbLine
 10
5.6488913609
 20
23.4437105325
 30
0.0
 11
5.6488913609
 21
22.4437105325
 31
0.0
  0
LINE
  5
111
330
102
100
AcDbEntity
  8
0
  6
Continuous
 62
     7
370
     0
100
AcDbLine
 10
5.6488913609
 20
22.0886558426
 30
0.0
 11
5.6488913609
 21
21.4536558426
 31
0.0
  0
MTEXT
  5
112
330
102
100
AcDbEntity
  8
0
  6
Continuous
 62
     7
370
     0
100
AcDbMText
 10
6.5962473346
 20
23.336059818
 30
0.0
 40
0.3175
 41
0.0
 71
     1
 72
     1
  1

  7
SLDTEXTSTYLE0
 73
     1
 44
1.0
  0
MTEXT
  5
113
330
102
100
AcDbEntity
  8
0
  6
Continuous
 62
     7
370
     0
100
AcDbMText
 10
6.7879600066
 20
23.8062464948
 30
0.0
 40
0.3175
 41
0.0
 71
     1
 72
     1
  1
.70
  7
SLDTEXTSTYLE0
 73
     1
 44
1.0
  0
MTEXT
  5
114
330
102
100
AcDbEntity
  8
0
  6
Continuous
 62
     7
370
     0
100
AcDbMText
 10
6.6706613486
 20
23.3312091466
 30
0.0
 40
0.3175
 41
0.0
 71
     1
 72
     1
  1
1.78
  7
SLDTEXTSTYLE0
 73
     1
 44
1.0
  0
MTEXT
  5
115
330
102
100
AcDbEntity
  8
0
  6
Continuous
 62
     7
370
     0
100
AcDbMText
 10
7.6869920312
 20
23.336059818
 30
0.0
 40
0.3175
 41
0.0
 71
     1
 72
     1
  1

  7
SLDTEXTSTYLE0
 73
     1
 44
1.0
  0
ENDBLK
  5
104
330
102
100
AcDbEntity
  8
0
100
AcDbBlockEnd
  0
BLOCK
  5
118
330
117
100
AcDbEntity
  8
0
100
AcDbBlockBegin
  2
_D_5
 70
     0
 10
0.0
 20
0.0
 30
0.0
  3
_D_5
  1
_D_5
  0
SOLID
  5
11A
330
117
100
AcDbEntity
  8
0
  6
Continuous
 62
     7
370
     0
100
AcDbTrace
 10
6.6176404516
 20
22.4437105325
 30
0.0
 11
6.5668404516
 21
22.1135105325
 31
0.0
 12
6.6684404516
 22
22.1135105325
 32
0.0
 13
6.6684404516
 23
22.1135105325
 33
0.0
  0
SOLID
  5
11B
330
117
100
AcDbEntity
  8
0
  6
Continuous
 62
     7
370
     0
100
AcDbTrace
 10
6.6176404516
 20
17.1356558426
 30
0.0
 11
6.6684404516
 21
17.4658558426
 31
0.0
 12
6.5668404516
 22
17.4658558426
 32
0.0
 13
6.5668404516
 23
17.4658558426
 33
0.0
  0
LINE
  5
11C
330
117
100
AcDbEntity
  8
0
  6
Continuous
 62
     7
370
     0
100
AcDbLine
 10
6.0091814762
 20
20.7862644222
 30
0.0
 11
5.9446892913
 21
20.7862644222
 31
0.0
  0
LINE
  5
11D
330
117
100
AcDbEntity
  8
0
  6
Continuous
 62
     7
370
     0
100
AcDbLine
 10
5.9446892913
 20
20.7862644222
 30
0.0
 11
5.9446892913
 21
20.282233157
 31
0.0
  0
LINE
  5
11E
330
117
100
AcDbEntity
  8
0
  6
Continuous
 62
     7
370
     0
100
AcDbLine
 10
5.9446892913
 20
20.282233157
 30
0.0
 11
6.0091814762
 21
20.282233157
 31
0.0
  0
LINE
  5
11F
330
117
100
AcDbEntity
  8
0
  6
Continuous
 62
     7
370
     0
100
AcDbLine
 10
7.2260994269
 20
20.7862644222
 30
0.0
 11
7.2905916118
 21
20.7862644222
 31
0.0
  0
LINE
  5
120
330
117
100
AcDbEntity
  8
0
  6
Continuous
 62
     7
370
     0
100
AcDbLine
 10
7.2905916118
 20
20.7862644222
 30
0.0
 11
7.2905916118
 21
20.282233157
 31
0.0
  0
LINE
  5
121
330
117
100
AcDbEntity
  8
0
  6
Continuous
 62
     7
370
     0
100
AcDbLine
 10
7.2905916118
 20
20.282233157
 30
0.0
 11
7.2260994269
 21
20.282233157
 31
0.0
  0
LINE
  5
122
330
117
100
AcDbEntity
  8
0
  6
Continuous
 62
     7
370
     0
100
AcDbLine
 10
4.7758913609
 20
22.4437105325
 30
0.0
 11
6.9351404516
 21
22.4437105325
 31
0.0
  0
LINE
  5
123
330
117
100
AcDbEntity
  8
0
  6
Continuous
 62
     7
370
     0
100
AcDbLine
 10
4.7222973609
 20
17.1356558426
 30
0.0
 11
6.9351404516
 21
17.1356558426
 31
0.0
  0
LINE
  5
124
330
117
100
AcDbEntity
  8
0
  6
Continuous
 62
     7
370
     0
100
AcDbLine
 10
6.6176404516
 20
22.4437105325
 30
0.0
 11
6.6176404516
 21
20.8507566013
 31
0.0
  0
LINE
  5
125
330
117
100
AcDbEntity
  8
0
  6
Continuous
 62
     7
370
     0
100
AcDbLine
 10
6.6176404516
 20
17.1356558426
 30
0.0
 11
6.6176404516
 21
19.8071958728
 31
0.0
  0
MTEXT
  5
126
330
117
100
AcDbEntity
  8
0
  6
Continuous
 62
     7
370
     0
100
AcDbMText
 10
5.8980840398
 20
20.2213255225
 30
0.0
 40
0.3175
 41
0.0
 71
     1
 72
     1
  1

  7
SLDTEXTSTYLE0
 73
     1
 44
1.0
  0
MTEXT
  5
127
330
117
100
AcDbEntity
  8
0
  6
Continuous
 62
     7
370
     0
100
AcDbMText
 10
6.0897967117
 20
20.6915121993
 30
0.0
 40
0.3175
 41
0.0
 71
     1
 72
     1
  1
10.45
  7
SLDTEXTSTYLE0
 73
     1
 44
1.0
  0
MTEXT
  5
128
330
117
100
AcDbEntity
  8
0
  6
Continuous
 62
     7
370
     0
100
AcDbMText
 10
6.0897966885
 20
20.2164748511
 30
0.0
 40
0.3175
 41
0.0
 71
     1
 72
     1
  1
26.54
  7
SLDTEXTSTYLE0
 73
     1
 44
1.0
  0
MTEXT
  5
129
330
117
100
AcDbEntity
  8
0
  6
Continuous
 62
     7
370
     0
100
AcDbMText
 10
7.4580231821
 20
20.2213255225
 30
0.0
 40
0.3175
 41
0.0
 71
     1
 72
     1
  1

  7
SLDTEXTSTYLE0
 73
     1
 44
1.0
  0
ENDBLK
  5
119
330
117
100
AcDbEntity
  8
0
100
AcDbBlockEnd
  0
BLOCK
  5
12B
330
12A
100
AcDbEntity
  8
0
100
AcDbBlockBegin
  2
SW_CENTERMARKSYMBOL_0
 70
     0
 10
0.0
 20
0.0
 30
0.0
  3
SW_CENTERMARKSYMBOL_0
  1
SW_CENTERMARKSYMBOL_0
  0
LINE
  5
12D
330
12A
100
AcDbEntity
  8
0
  6
Continuous
 62
     0
370
     0
100
AcDbLine
 10
0.0
 20
0.0
 30
0.0
 11
0.0
 21
0.0508
 31
0.0
  0
LINE
  5
12E
330
12A
100
AcDbEntity
  8
0
  6
Continuous
 62
     0
370
     0
100
AcDbLine
 10
0.0
 20
0.0
 30
0.0
 11
-0.0508
 21
0.0
 31
0.0
  0
LINE
  5
12F
330
12A
100
AcDbEntity
  8
0
  6
Continuous
 62
     0
370
     0
100
AcDbLine
 10
0.0
 20
0.0
 30
0.0
 11
0.0
 21
-0.0508
 31
0.0
  0
LINE
  5
130
330
12A
100
AcDbEntity
  8
0
  6
Continuous
 62
     0
370
     0
100
AcDbLine
 10
0.0
 20
0.0
 30
0.0
 11
0.0508
 21
0.0
 31
0.0
  0
LINE
  5
131
330
12A
100
AcDbEntity
  8
0
  6
Continuous
 62
     0
370
     0
100
AcDbLine
 10
0.0
 20
0.0508
 30
0.0
 11
0.0
 21
0.073406
 31
0.0
  0
LINE
  5
132
330
12A
100
AcDbEntity
  8
0
  6
Continuous
 62
     0
370
     0
100
AcDbLine
 10
-0.0508
 20
0.0
 30
0.0
 11
-0.073406
 21
0.0
 31
0.0
  0
LINE
  5
133
330
12A
100
AcDbEntity
  8
0
  6
Continuous
 62
     0
370
     0
100
AcDbLine
 10
0.0
 20
-0.0508
 30
0.0
 11
0.0
 21
-0.073406
 31
0.0
  0
LINE
  5
134
330
12A
100
AcDbEntity
  8
0
  6
Continuous
 62
     0
370
     0
100
AcDbLine
 10
0.0508
 20
0.0
 30
0.0
 11
0.073406
 21
0.0
 31
0.0
  0
ENDBLK
  5
12C
330
12A
100
AcDbEntity
  8
0
100
AcDbBlockEnd
  0
BLOCK
  5
137
330
136
100
AcDbEntity
  8
0
100
AcDbBlockBegin
  2
SW_CENTERMARKSYMBOL_1
 70
     0
 10
0.0
 20
0.0
 30
0.0
  3
SW_CENTERMARKSYMBOL_1
  1
SW_CENTERMARKSYMBOL_1
  0
LINE
  5
139
330
136
100
AcDbEntity
  8
0
  6
Continuous
 62
     0
370
     0
100
AcDbLine
 10
0.0
 20
0.0
 30
0.0
 11
0.0
 21
0.0508
 31
0.0
  0
LINE
  5
13A
330
136
100
AcDbEntity
  8
0
  6
Continuous
 62
     0
370
     0
100
AcDbLine
 10
0.0
 20
0.0
 30
0.0
 11
-0.0508
 21
0.0
 31
0.0
  0
LINE
  5
13B
330
136
100
AcDbEntity
  8
0
  6
Continuous
 62
     0
370
     0
100
AcDbLine
 10
0.0
 20
0.0
 30
0.0
 11
0.0
 21
-0.0508
 31
0.0
  0
LINE
  5
13C
330
136
100
AcDbEntity
  8
0
  6
Continuous
 62
     0
370
     0
100
AcDbLine
 10
0.0
 20
0.0
 30
0.0
 11
0.0508
 21
0.0
 31
0.0
  0
LINE
  5
13D
330
136
100
AcDbEntity
  8
0
  6
Continuous
 62
     0
370
     0
100
AcDbLine
 10
0.0
 20
0.0508
 30
0.0
 11
0.0
 21
0.073406
 31
0.0
  0
LINE
  5
13E
330
136
100
AcDbEntity
  8
0
  6
Continuous
 62
     0
370
     0
100
AcDbLine
 10
-0.0508
 20
0.0
 30
0.0
 11
-0.073406
 21
0.0
 31
0.0
  0
LINE
  5
13F
330
136
100
AcDbEntity
  8
0
  6
Continuous
 62
     0
370
     0
100
AcDbLine
 10
0.0
 20
-0.0508
 30
0.0
 11
0.0
 21
-0.073406
 31
0.0
  0
LINE
  5
140
330
136
100
AcDbEntity
  8
0
  6
Continuous
 62
     0
370
     0
100
AcDbLine
 10
0.0508
 20
0.0
 30
0.0
 11
0.073406
 21
0.0
 31
0.0
  0
ENDBLK
  5
138
330
136
100
AcDbEntity
  8
0
100
AcDbBlockEnd
  0
BLOCK
  5
143
330
142
100
AcDbEntity
  8
0
100
AcDbBlockBegin
  2
SW_CENTERMARKSYMBOL_2
 70
     0
 10
0.0
 20
0.0
 30
0.0
  3
SW_CENTERMARKSYMBOL_2
  1
SW_CENTERMARKSYMBOL_2
  0
LINE
  5
145
330
142
100
AcDbEntity
  8
0
  6
Continuous
 62
     0
370
     0
100
AcDbLine
 10
0.0
 20
0.0
 30
0.0
 11
0.0
 21
0.0508
 31
0.0
  0
LINE
  5
146
330
142
100
AcDbEntity
  8
0
  6
Continuous
 62
     0
370
     0
100
AcDbLine
 10
0.0
 20
0.0
 30
0.0
 11
-0.0508
 21
0.0
 31
0.0
  0
LINE
  5
147
330
142
100
AcDbEntity
  8
0
  6
Continuous
 62
     0
370
     0
100
AcDbLine
 10
0.0
 20
0.0
 30
0.0
 11
0.0
 21
-0.0508
 31
0.0
  0
LINE
  5
148
330
142
100
AcDbEntity
  8
0
  6
Continuous
 62
     0
370
     0
100
AcDbLine
 10
0.0
 20
0.0
 30
0.0
 11
0.0508
 21
0.0
 31
0.0
  0
LINE
  5
149
330
142
100
AcDbEntity
  8
0
  6
Continuous
 62
     0
370
     0
100
AcDbLine
 10
0.0
 20
0.0508
 30
0.0
 11
0.0
 21
0.073406
 31
0.0
  0
LINE
  5
14A
330
142
100
AcDbEntity
  8
0
  6
Continuous
 62
     0
370
     0
100
AcDbLine
 10
-0.0508
 20
0.0
 30
0.0
 11
-0.073406
 21
0.0
 31
0.0
  0
LINE
  5
14B
330
142
100
AcDbEntity
  8
0
  6
Continuous
 62
     0
370
     0
100
AcDbLine
 10
0.0
 20
-0.0508
 30
0.0
 11
0.0
 21
-0.073406
 31
0.0
  0
LINE
  5
14C
330
142
100
AcDbEntity
  8
0
  6
Continuous
 62
     0
370
     0
100
AcDbLine
 10
0.0508
 20
0.0
 30
0.0
 11
0.073406
 21
0.0
 31
0.0
  0
ENDBLK
  5
144
330
142
100
AcDbEntity
  8
0
100
AcDbBlockEnd
  0
BLOCK
  5
14F
330
14E
100
AcDbEntity
  8
0
100
AcDbBlockBegin
  2
SW_CENTERMARKSYMBOL_3
 70
     0
 10
0.0
 20
0.0
 30
0.0
  3
SW_CENTERMARKSYMBOL_3
  1
SW_CENTERMARKSYMBOL_3
  0
LINE
  5
151
330
14E
100
AcDbEntity
  8
0
  6
Continuous
 62
     0
370
     0
100
AcDbLine
 10
0.0
 20
0.0
 30
0.0
 11
0.0
 21
0.0508
 31
0.0
  0
LINE
  5
152
330
14E
100
AcDbEntity
  8
0
  6
Continuous
 62
     0
370
     0
100
AcDbLine
 10
0.0
 20
0.0
 30
0.0
 11
-0.0508
 21
0.0
 31
0.0
  0
LINE
  5
153
330
14E
100
AcDbEntity
  8
0
  6
Continuous
 62
     0
370
     0
100
AcDbLine
 10
0.0
 20
0.0
 30
0.0
 11
0.0
 21
-0.0508
 31
0.0
  0
LINE
  5
154
330
14E
100
AcDbEntity
  8
0
  6
Continuous
 62
     0
370
     0
100
AcDbLine
 10
0.0
 20
0.0
 30
0.0
 11
0.0508
 21
0.0
 31
0.0
  0
LINE
  5
155
330
14E
100
AcDbEntity
  8
0
  6
Continuous
 62
     0
370
     0
100
AcDbLine
 10
0.0
 20
0.0508
 30
0.0
 11
0.0
 21
0.073406
 31
0.0
  0
LINE
  5
156
330
14E
100
AcDbEntity
  8
0
  6
Continuous
 62
     0
370
     0
100
AcDbLine
 10
-0.0508
 20
0.0
 30
0.0
 11
-0.073406
 21
0.0
 31
0.0
  0
LINE
  5
157
330
14E
100
AcDbEntity
  8
0
  6
Continuous
 62
     0
370
     0
100
AcDbLine
 10
0.0
 20
-0.0508
 30
0.0
 11
0.0
 21
-0.073406
 31
0.0
  0
LINE
  5
158
330
14E
100
AcDbEntity
  8
0
  6
Continuous
 62
     0
370
     0
100
AcDbLine
 10
0.0508
 20
0.0
 30
0.0
 11
0.073406
 21
0.0
 31
0.0
  0
ENDBLK
  5
150
330
14E
100
AcDbEntity
  8
0
100
AcDbBlockEnd
  0
BLOCK
  5
166
330
165
100
AcDbEntity
  8
0
100
AcDbBlockBegin
  2
_D_6
 70
     0
 10
0.0
 20
0.0
 30
0.0
  3
_D_6
  1
_D_6
  0
SOLID
  5
168
330
165
100
AcDbEntity
  8
0
  6
Continuous
 62
     7
370
     0
100
AcDbTrace
 10
4.5475068771
 20
24.6622869749
 30
0.0
 11
4.7571224915
 21
24.922429194
 31
0.0
 12
4.669236247
 22
24.9734053455
 32
0.0
 13
4.669236247
 23
24.9734053455
 33
0.0
  0
LINE
  5
169
330
165
100
AcDbEntity
  8
0
  6
Continuous
 62
     7
370
     0
100
AcDbLine
 10
4.5475068771
 20
24.6622869749
 30
0.0
 11
5.1136576882
 21
25.6383682841
 31
0.0
  0
LINE
  5
16A
330
165
100
AcDbEntity
  8
0
  6
Continuous
 62
     7
370
     0
100
AcDbLine
 10
5.1136576882
 20
25.6383682841
 30
0.0
 11
5.6692826882
 21
25.6383682841
 31
0.0
  0
MTEXT
  5
16B
330
165
100
AcDbEntity
  8
0
  6
Continuous
 62
     7
370
     0
100
AcDbMText
 10
6.7560919085
 20
26.0476472857
 30
0.0
 40
0.3175
 41
0.0
 71
     1
 72
     1
  1
%%c
  7
SLDTEXTSTYLE0
 73
     1
 44
1.0
  0
MTEXT
  5
16C
330
165
100
AcDbEntity
  8
0
  6
Continuous
 62
     7
370
     0
100
AcDbMText
 10
7.3539840848
 20
26.0524979803
 30
0.0
 40
0.3175
 41
0.0
 71
     1
 72
     1
  1
0.51[0.20]
  7
SLDTEXTSTYLE0
 73
     1
 44
1.0
  0
INSERT
  5
174
330
165
100
AcDbEntity
  8
0
  6
Continuous
 62
     7
370
     0
100
AcDbBlockReference
  2
SW_SYMBOL_HOLE_DEPTH
 10
9.4089147159
 20
25.6823965986
 30
0.0
 41
0.0040555664
 42
0.0040555664
 43
0.0040555664
  0
MTEXT
  5
175
330
165
100
AcDbEntity
  8
0
  6
Continuous
 62
     7
370
     0
100
AcDbMText
 10
9.9816052567
 20
26.0524979803
 30
0.0
 40
0.3175
 41
0.0
 71
     1
 72
     1
  1
1.27[0.50]
  7
SLDTEXTSTYLE0
 73
     1
 44
1.0
  0
MTEXT
  5
176
330
165
100
AcDbEntity
  8
0
  6
Continuous
 62
     7
370
     0
100
AcDbMText
 10
5.8280326882
 20
25.5436160613
 30
0.0
 40
0.3175
 41
0.0
 71
     1
 72
     1
  1
#1/4-20 UNC  TAPPED
  7
SLDTEXTSTYLE0
 73
     1
 44
1.0
  0
INSERT
  5
177
330
165
100
AcDbEntity
  8
0
  6
Continuous
 62
     7
370
     0
100
AcDbBlockReference
  2
SW_SYMBOL_HOLE_DEPTH
 10
10.3369735637
 20
25.1735146795
 30
0.0
 41
0.0040555664
 42
0.0040555664
 43
0.0040555664
  0
MTEXT
  5
178
330
165
100
AcDbEntity
  8
0
  6
Continuous
 62
     7
370
     0
100
AcDbMText
 10
10.9096642908
 20
25.5436160613
 30
0.0
 40
0.3175
 41
0.0
 71
     1
 72
     1
  1
1.14[0.45]
  7
SLDTEXTSTYLE0
 73
     1
 44
1.0
  0
ENDBLK
  5
167
330
165
100
AcDbEntity
  8
0
100
AcDbBlockEnd
  0
BLOCK
  5
16E
330
16D
100
AcDbEntity
  8
0
100
AcDbBlockBegin
  2
SW_SYMBOL_HOLE_DEPTH
 70
     0
 10
0.0
 20
0.0
 30
0.0
  3
SW_SYMBOL_HOLE_DEPTH
  1
SW_SYMBOL_HOLE_DEPTH
  0
LINE
  5
170
330
16D
100
AcDbEntity
  8
0
  6
Continuous
 62
     0
370
     0
100
AcDbLine
 10
0.0
 20
87.5
 30
0.0
 11
80.0
 21
87.5
 31
0.0
  0
LINE
  5
171
330
16D
100
AcDbEntity
  8
0
  6
Continuous
 62
     0
370
     0
100
AcDbLine
 10
40.0
 20
87.5
 30
0.0
 11
40.0
 21
7.5
 31
0.0
  0
LINE
  5
172
330
16D
100
AcDbEntity
  8
0
  6
Continuous
 62
     0
370
     0
100
AcDbLine
 10
10.0
 20
55.5
 30
0.0
 11
40.0
 21
7.5
 31
0.0
  0
LINE
  5
173
330
16D
100
AcDbEntity
  8
0
  6
Continuous
 62
     0
370
     0
100
AcDbLine
 10
70.0
 20
55.5
 30
0.0
 11
40.0
 21
7.5
 31
0.0
  0
ENDBLK
  5
16F
330
16D
100
AcDbEntity
  8
0
100
AcDbBlockEnd
  0
BLOCK
  5
17A
330
179
100
AcDbEntity
  8
0
100
AcDbBlockBegin
  2
SW_CENTERMARKSYMBOL_4
 70
     0
 10
0.0
 20
0.0
 30
0.0
  3
SW_CENTERMARKSYMBOL_4
  1
SW_CENTERMARKSYMBOL_4
  0
LINE
  5
17C
330
179
100
AcDbEntity
  8
0
  6
Continuous
 62
     0
370
     0
100
AcDbLine
 10
0.0
 20
0.0
 30
0.0
 11
0.0
 21
0.0508
 31
0.0
  0
LINE
  5
17D
330
179
100
AcDbEntity
  8
0
  6
Continuous
 62
     0
370
     0
100
AcDbLine
 10
0.0
 20
0.0
 30
0.0
 11
-0.0508
 21
0.0
 31
0.0
  0
LINE
  5
17E
330
179
100
AcDbEntity
  8
0
  6
Continuous
 62
     0
370
     0
100
AcDbLine
 10
0.0
 20
0.0
 30
0.0
 11
0.0
 21
-0.0508
 31
0.0
  0
LINE
  5
17F
330
179
100
AcDbEntity
  8
0
  6
Continuous
 62
     0
370
     0
100
AcDbLine
 10
0.0
 20
0.0
 30
0.0
 11
0.0508
 21
0.0
 31
0.0
  0
LINE
  5
180
330
179
100
AcDbEntity
  8
0
  6
Continuous
 62
     0
370
     0
100
AcDbLine
 10
0.0
 20
0.1016
 30
0.0
 11
0.0
 21
0.101854
 31
0.0
  0
LINE
  5
181
330
179
100
AcDbEntity
  8
0
  6
Continuous
 62
     0
370
     0
100
AcDbLine
 10
-0.1016
 20
0.0
 30
0.0
 11
-0.101854
 21
0.0
 31
0.0
  0
LINE
  5
182
330
179
100
AcDbEntity
  8
0
  6
Continuous
 62
     0
370
     0
100
AcDbLine
 10
0.0
 20
-0.1016
 30
0.0
 11
0.0
 21
-0.101854
 31
0.0
  0
LINE
  5
183
330
179
100
AcDbEntity
  8
0
  6
Continuous
 62
     0
370
     0
100
AcDbLine
 10
0.1016
 20
0.0
 30
0.0
 11
0.101854
 21
0.0
 31
0.0
  0
ENDBLK
  5
17B
330
179
100
AcDbEntity
  8
0
100
AcDbBlockEnd
  0
BLOCK
  5
18E
330
18D
100
AcDbEntity
  8
0
100
AcDbBlockBegin
  2
_D_7
 70
     0
 10
0.0
 20
0.0
 30
0.0
  3
_D_7
  1
_D_7
  0
SOLID
  5
190
330
18D
100
AcDbEntity
  8
0
  6
Continuous
 62
     7
370
     0
100
AcDbTrace
 10
4.6488913609
 20
6.8354318782
 30
0.0
 11
4.9790913609
 21
6.7846318782
 31
0.0
 12
4.9790913609
 22
6.8862318782
 32
0.0
 13
4.9790913609
 23
6.8862318782
 33
0.0
  0
SOLID
  5
191
330
18D
100
AcDbEntity
  8
0
  6
Continuous
 62
     7
370
     0
100
AcDbTrace
 10
4.3948913609
 20
6.8354318782
 30
0.0
 11
4.0646913609
 21
6.8862318782
 31
0.0
 12
4.0646913609
 22
6.7846318782
 32
0.0
 13
4.0646913609
 23
6.7846318782
 33
0.0
  0
LINE
  5
192
330
18D
100
AcDbEntity
  8
0
  6
Continuous
 62
     7
370
     0
100
AcDbLine
 10
5.6680813739
 20
7.2927200633
 30
0.0
 11
5.603589189
 21
7.2927200633
 31
0.0
  0
LINE
  5
193
330
18D
100
AcDbEntity
  8
0
  6
Continuous
 62
     7
370
     0
100
AcDbLine
 10
5.603589189
 20
7.2927200633
 30
0.0
 11
5.603589189
 21
6.7886887982
 31
0.0
  0
LINE
  5
194
330
18D
100
AcDbEntity
  8
0
  6
Continuous
 62
     7
370
     0
100
AcDbLine
 10
5.603589189
 20
6.7886887982
 30
0.0
 11
5.6680813739
 21
6.7886887982
 31
0.0
  0
LINE
  5
195
330
18D
100
AcDbEntity
  8
0
  6
Continuous
 62
     7
370
     0
100
AcDbLine
 10
6.4158048788
 20
7.2927200633
 30
0.0
 11
6.4802970637
 21
7.2927200633
 31
0.0
  0
LINE
  5
196
330
18D
100
AcDbEntity
  8
0
  6
Continuous
 62
     7
370
     0
100
AcDbLine
 10
6.4802970637
 20
7.2927200633
 30
0.0
 11
6.4802970637
 21
6.7886887982
 31
0.0
  0
LINE
  5
197
330
18D
100
AcDbEntity
  8
0
  6
Continuous
 62
     7
370
     0
100
AcDbLine
 10
6.4802970637
 20
6.7886887982
 30
0.0
 11
6.4158048788
 21
6.7886887982
 31
0.0
  0
LINE
  5
198
330
18D
100
AcDbEntity
  8
0
  6
Continuous
 62
     7
370
     0
100
AcDbLine
 10
4.6488913609
 20
7.5637972054
 30
0.0
 11
4.6488913609
 21
6.5179318782
 31
0.0
  0
LINE
  5
199
330
18D
100
AcDbEntity
  8
0
  6
Continuous
 62
     7
370
     0
100
AcDbLine
 10
4.3948913609
 20
7.5637972054
 30
0.0
 11
4.3948913609
 21
6.5179318782
 31
0.0
  0
LINE
  5
19A
330
18D
100
AcDbEntity
  8
0
  6
Continuous
 62
     7
370
     0
100
AcDbLine
 10
4.6488913609
 20
6.8354318782
 30
0.0
 11
5.3734902795
 21
6.8354318782
 31
0.0
  0
LINE
  5
19B
330
18D
100
AcDbEntity
  8
0
  6
Continuous
 62
     7
370
     0
100
AcDbLine
 10
4.3948913609
 20
6.8354318782
 30
0.0
 11
3.7598913609
 21
6.8354318782
 31
0.0
  0
MTEXT
  5
19C
330
18D
100
AcDbEntity
  8
0
  6
Continuous
 62
     7
370
     0
100
AcDbMText
 10
5.5569839374
 20
6.7277811637
 30
0.0
 40
0.3175
 41
0.0
 71
     1
 72
     1
  1

  7
SLDTEXTSTYLE0
 73
     1
 44
1.0
  0
MTEXT
  5
19D
330
18D
100
AcDbEntity
  8
0
  6
Continuous
 62
     7
370
     0
100
AcDbMText
 10
5.7486966094
 20
7.1979678405
 30
0.0
 40
0.3175
 41
0.0
 71
     1
 72
     1
  1
.50
  7
SLDTEXTSTYLE0
 73
     1
 44
1.0
  0
MTEXT
  5
19E
330
18D
100
AcDbEntity
  8
0
  6
Continuous
 62
     7
370
     0
100
AcDbMText
 10
5.6313979514
 20
6.7229304923
 30
0.0
 40
0.3175
 41
0.0
 71
     1
 72
     1
  1
1.27
  7
SLDTEXTSTYLE0
 73
     1
 44
1.0
  0
MTEXT
  5
19F
330
18D
100
AcDbEntity
  8
0
  6
Continuous
 62
     7
370
     0
100
AcDbMText
 10
6.647728634
 20
6.7277811637
 30
0.0
 40
0.3175
 41
0.0
 71
     1
 72
     1
  1

  7
SLDTEXTSTYLE0
 73
     1
 44
1.0
  0
ENDBLK
  5
18F
330
18D
100
AcDbEntity
  8
0
100
AcDbBlockEnd
  0
BLOCK
  5
1A2
330
1A1
100
AcDbEntity
  8
0
100
AcDbBlockBegin
  2
_D_8
 70
     0
 10
0.0
 20
0.0
 30
0.0
  3
_D_8
  1
_D_8
  0
SOLID
  5
1A4
330
1A1
100
AcDbEntity
  8
0
  6
Continuous
 62
     7
370
     0
100
AcDbTrace
 10
3.6567215268
 20
7.6907972054
 30
0.0
 11
3.6059215268
 21
7.3605972054
 31
0.0
 12
3.7075215268
 22
7.3605972054
 32
0.0
 13
3.7075215268
 23
7.3605972054
 33
0.0
  0
SOLID
  5
1A5
330
1A1
100
AcDbEntity
  8
0
  6
Continuous
 62
     7
370
     0
100
AcDbTrace
 10
3.6567215268
 20
7.9447972054
 30
0.0
 11
3.7075215268
 21
8.2749972054
 31
0.0
 12
3.6059215268
 22
8.2749972054
 32
0.0
 13
3.6059215268
 23
8.2749972054
 33
0.0
  0
LINE
  5
1A6
330
1A1
100
AcDbEntity
  8
0
  6
Continuous
 62
     7
370
     0
100
AcDbLine
 10
1.8505447049
 20
9.3119229637
 30
0.0
 11
1.78605252
 21
9.3119229637
 31
0.0
  0
LINE
  5
1A7
330
1A1
100
AcDbEntity
  8
0
  6
Continuous
 62
     7
370
     0
100
AcDbLine
 10
1.78605252
 20
9.3119229637
 30
0.0
 11
1.78605252
 21
8.8078916986
 31
0.0
  0
LINE
  5
1A8
330
1A1
100
AcDbEntity
  8
0
  6
Continuous
 62
     7
370
     0
100
AcDbLine
 10
1.78605252
 20
8.8078916986
 30
0.0
 11
1.8505447049
 21
8.8078916986
 31
0.0
  0
LINE
  5
1A9
330
1A1
100
AcDbEntity
  8
0
  6
Continuous
 62
     7
370
     0
100
AcDbLine
 10
2.5982682098
 20
9.3119229637
 30
0.0
 11
2.6627603947
 21
9.3119229637
 31
0.0
  0
LINE
  5
1AA
330
1A1
100
AcDbEntity
  8
0
  6
Continuous
 62
     7
370
     0
100
AcDbLine
 10
2.6627603947
 20
9.3119229637
 30
0.0
 11
2.6627603947
 21
8.8078916986
 31
0.0
  0
LINE
  5
1AB
330
1A1
100
AcDbEntity
  8
0
  6
Continuous
 62
     7
370
     0
100
AcDbLine
 10
2.6627603947
 20
8.8078916986
 30
0.0
 11
2.5982682098
 21
8.8078916986
 31
0.0
  0
LINE
  5
1AC
330
1A1
100
AcDbEntity
  8
0
  6
Continuous
 62
     7
370
     0
100
AcDbLine
 10
4.2678913609
 20
7.6907972054
 30
0.0
 11
3.3392215268
 21
7.6907972054
 31
0.0
  0
LINE
  5
1AD
330
1A1
100
AcDbEntity
  8
0
  6
Continuous
 62
     7
370
     0
100
AcDbLine
 10
4.2678913609
 20
7.9447972054
 30
0.0
 11
3.3392215268
 21
7.9447972054
 31
0.0
  0
LINE
  5
1AE
330
1A1
100
AcDbEntity
  8
0
  6
Continuous
 62
     7
370
     0
100
AcDbLine
 10
3.0217215268
 20
8.8546347786
 30
0.0
 11
3.6567215268
 21
8.8546347786
 31
0.0
  0
LINE
  5
1AF
330
1A1
100
AcDbEntity
  8
0
  6
Continuous
 62
     7
370
     0
100
AcDbLine
 10
3.6567215268
 20
8.8546347786
 30
0.0
 11
3.6567215268
 21
7.9447972054
 31
0.0
  0
LINE
  5
1B0
330
1A1
100
AcDbEntity
  8
0
  6
Continuous
 62
     7
370
     0
100
AcDbLine
 10
3.6567215268
 20
7.6907972054
 30
0.0
 11
3.6567215268
 21
7.0557972054
 31
0.0
  0
MTEXT
  5
1B1
330
1A1
100
AcDbEntity
  8
0
  6
Continuous
 62
     7
370
     0
100
AcDbMText
 10
1.7394472684
 20
8.746984064
 30
0.0
 40
0.3175
 41
0.0
 71
     1
 72
     1
  1

  7
SLDTEXTSTYLE0
 73
     1
 44
1.0
  0
MTEXT
  5
1B2
330
1A1
100
AcDbEntity
  8
0
  6
Continuous
 62
     7
370
     0
100
AcDbMText
 10
1.9311599404
 20
9.2171707409
 30
0.0
 40
0.3175
 41
0.0
 71
     1
 72
     1
  1
.50
  7
SLDTEXTSTYLE0
 73
     1
 44
1.0
  0
MTEXT
  5
1B3
330
1A1
100
AcDbEntity
  8
0
  6
Continuous
 62
     7
370
     0
100
AcDbMText
 10
1.8138612824
 20
8.7421333926
 30
0.0
 40
0.3175
 41
0.0
 71
     1
 72
     1
  1
1.27
  7
SLDTEXTSTYLE0
 73
     1
 44
1.0
  0
MTEXT
  5
1B4
330
1A1
100
AcDbEntity
  8
0
  6
Continuous
 62
     7
370
     0
100
AcDbMText
 10
2.830191965
 20
8.746984064
 30
0.0
 40
0.3175
 41
0.0
 71
     1
 72
     1
  1

  7
SLDTEXTSTYLE0
 73
     1
 44
1.0
  0
ENDBLK
  5
1A3
330
1A1
100
AcDbEntity
  8
0
100
AcDbBlockEnd
  0
BLOCK
  5
1B7
330
1B6
100
AcDbEntity
  8
0
100
AcDbBlockBegin
  2
_D_9
 70
     0
 10
0.0
 20
0.0
 30
0.0
  3
_D_9
  1
_D_9
  0
SOLID
  5
1B9
330
1B6
100
AcDbEntity
  8
0
  6
Continuous
 62
     7
370
     0
100
AcDbTrace
 10
4.5729303493
 20
7.8165592299
 30
0.0
 11
4.9018014426
 21
7.7577673601
 31
0.0
 12
4.9042650755
 22
7.8593374861
 32
0.0
 13
4.9042650755
 23
7.8593374861
 33
0.0
  0
LINE
  5
1BA
330
1B6
100
AcDbEntity
  8
0
  6
Continuous
 62
     7
370
     0
100
AcDbLine
 10
4.5729303493
 20
7.8165592299
 30
0.0
 11
7.1807612878
 21
7.7533050205
 31
0.0
  0
LINE
  5
1BB
330
1B6
100
AcDbEntity
  8
0
  6
Continuous
 62
     7
370
     0
100
AcDbLine
 10
7.1807612878
 20
7.7533050205
 30
0.0
 11
7.7363862878
 21
7.7533050205
 31
0.0
  0
MTEXT
  5
1BC
330
1B6
100
AcDbEntity
  8
0
  6
Continuous
 62
     7
370
     0
100
AcDbMText
 10
7.8951362878
 20
8.1625840221
 30
0.0
 40
0.3175
 41
0.0
 71
     1
 72
     1
  1
%%c
  7
SLDTEXTSTYLE0
 73
     1
 44
1.0
  0
MTEXT
  5
1BD
330
1B6
100
AcDbEntity
  8
0
  6
Continuous
 62
     7
370
     0
100
AcDbMText
 10
8.4930284641
 20
8.1674347168
 30
0.0
 40
0.3175
 41
0.0
 71
     1
 72
     1
  1
0.51[0.20]
  7
SLDTEXTSTYLE0
 73
     1
 44
1.0
  0
INSERT
  5
1BE
330
1B6
100
AcDbEntity
  8
0
  6
Continuous
 62
     7
370
     0
100
AcDbBlockReference
  2
SW_SYMBOL_HOLE_DEPTH
 10
10.5479590953
 20
7.797333335
 30
0.0
 41
0.0040555664
 42
0.0040555664
 43
0.0040555664
  0
MTEXT
  5
1BF
330
1B6
100
AcDbEntity
  8
0
  6
Continuous
 62
     7
370
     0
100
AcDbMText
 10
11.1206496361
 20
8.1674347168
 30
0.0
 40
0.3175
 41
0.0
 71
     1
 72
     1
  1
1.27[0.50]
  7
SLDTEXTSTYLE0
 73
     1
 44
1.0
  0
MTEXT
  5
1C0
330
1B6
100
AcDbEntity
  8
0
  6
Continuous
 62
     7
370
     0
100
AcDbMText
 10
7.9462558389
 20
7.6585527977
 30
0.0
 40
0.3175
 41
0.0
 71
     1
 72
     1
  1
1/4-20 UNC
  7
SLDTEXTSTYLE0
 73
     1
 44
1.0
  0
INSERT
  5
1C1
330
1B6
100
AcDbEntity
  8
0
  6
Continuous
 62
     7
370
     0
100
AcDbBlockReference
  2
SW_SYMBOL_HOLE_DEPTH
 10
10.4968391717
 20
7.288451416
 30
0.0
 41
0.0040555664
 42
0.0040555664
 43
0.0040555664
  0
MTEXT
  5
1C2
330
1B6
100
AcDbEntity
  8
0
  6
Continuous
 62
     7
370
     0
100
AcDbMText
 10
11.0695298988
 20
7.6585527977
 30
0.0
 40
0.3175
 41
0.0
 71
     1
 72
     1
  1
1.14[0.45]
  7
SLDTEXTSTYLE0
 73
     1
 44
1.0
  0
ENDBLK
  5
1B8
330
1B6
100
AcDbEntity
  8
0
100
AcDbBlockEnd
  0
BLOCK
  5
1C4
330
1C3
100
AcDbEntity
  8
0
100
AcDbBlockBegin
  2
SW_CENTERMARKSYMBOL_5
 70
     0
 10
0.0
 20
0.0
 30
0.0
  3
SW_CENTERMARKSYMBOL_5
  1
SW_CENTERMARKSYMBOL_5
  0
LINE
  5
1C6
330
1C3
100
AcDbEntity
  8
0
  6
Continuous
 62
     0
370
     0
100
AcDbLine
 10
0.0
 20
0.0
 30
0.0
 11
0.0
 21
0.0508
 31
0.0
  0
LINE
  5
1C7
330
1C3
100
AcDbEntity
  8
0
  6
Continuous
 62
     0
370
     0
100
AcDbLine
 10
0.0
 20
0.0
 30
0.0
 11
-0.0508
 21
0.0
 31
0.0
  0
LINE
  5
1C8
330
1C3
100
AcDbEntity
  8
0
  6
Continuous
 62
     0
370
     0
100
AcDbLine
 10
0.0
 20
0.0
 30
0.0
 11
0.0
 21
-0.0508
 31
0.0
  0
LINE
  5
1C9
330
1C3
100
AcDbEntity
  8
0
  6
Continuous
 62
     0
370
     0
100
AcDbLine
 10
0.0
 20
0.0
 30
0.0
 11
0.0508
 21
0.0
 31
0.0
  0
LINE
  5
1CA
330
1C3
100
AcDbEntity
  8
0
  6
Continuous
 62
     0
370
     0
100
AcDbLine
 10
0.0
 20
0.1016
 30
0.0
 11
0.0
 21
0.101854
 31
0.0
  0
LINE
  5
1CB
330
1C3
100
AcDbEntity
  8
0
  6
Continuous
 62
     0
370
     0
100
AcDbLine
 10
-0.1016
 20
0.0
 30
0.0
 11
-0.101854
 21
0.0
 31
0.0
  0
LINE
  5
1CC
330
1C3
100
AcDbEntity
  8
0
  6
Continuous
 62
     0
370
     0
100
AcDbLine
 10
0.0
 20
-0.1016
 30
0.0
 11
0.0
 21
-0.101854
 31
0.0
  0
LINE
  5
1CD
330
1C3
100
AcDbEntity
  8
0
  6
Continuous
 62
     0
370
     0
100
AcDbLine
 10
0.1016
 20
0.0
 30
0.0
 11
0.101854
 21
0.0
 31
0.0
  0
ENDBLK
  5
1C5
330
1C3
100
AcDbEntity
  8
0
100
AcDbBlockEnd
  0
ENDSEC
  0
SECTION
  2
ENTITIES
  0
LINE
  5
70
330
1F
100
AcDbEntity
  8
0
  6
Continuous
 62
     7
370
     0
100
AcDbLine
 10
7.9375
 20
0.635
 30
0.0
 11
7.9375
 21
4.445
 31
0.0
  0
LINE
  5
71
330
1F
100
AcDbEntity
  8
0
  6
Continuous
 62
     7
370
     0
100
AcDbLine
 10
7.9375
 20
4.445
 30
0.0
 11
20.6375
 21
4.445
 31
0.0
  0
LINE
  5
72
330
1F
100
AcDbEntity
  8
0
  6
Continuous
 62
     7
370
     0
100
AcDbLine
 10
11.2826512182
 20
4.445
 30
0.0
 11
11.2826512182
 21
0.635
 31
0.0
  0
LINE
  5
73
330
1F
100
AcDbEntity
  8
0
  6
Continuous
 62
     7
370
     0
100
AcDbLine
 10
14.7488884565
 20
4.445
 30
0.0
 11
14.7488884565
 21
0.635
 31
0.0
  0
LINE
  5
74
330
1F
100
AcDbEntity
  8
0
  6
Continuous
 62
     7
370
     0
100
AcDbLine
 10
0.9525
 20
27.305
 30
0.0
 11
20.6375
 21
27.305
 31
0.0
  0
LINE
  5
75
330
1F
100
AcDbEntity
  8
0
  6
Continuous
 62
     7
370
     0
100
AcDbLine
 10
0.9525
 20
27.305
 30
0.0
 11
0.9525
 21
0.635
 31
0.0
  0
LINE
  5
76
330
1F
100
AcDbEntity
  8
0
  6
Continuous
 62
     7
370
     0
100
AcDbLine
 10
14.7488884565
 20
0.9525
 30
0.0
 11
20.6375
 21
0.9525
 31
0.0
  0
LINE
  5
77
330
1F
100
AcDbEntity
  8
0
  6
Continuous
 62
     7
370
     0
100
AcDbLine
 10
20.6375
 20
0.635
 30
0.0
 11
20.6375
 21
27.305
 31
0.0
  0
LINE
  5
78
330
1F
100
AcDbEntity
  8
0
  6
Continuous
 62
     7
370
     0
100
AcDbLine
 10
14.7488884565
 20
1.5875
 30
0.0
 11
20.6375
 21
1.5875
 31
0.0
  0
LINE
  5
79
330
1F
100
AcDbEntity
  8
0
  6
Continuous
 62
     7
370
     0
100
AcDbLine
 10
11.2826512182
 20
2.159
 30
0.0
 11
14.7488884565
 21
2.159
 31
0.0
  0
LINE
  5
7A
330
1F
100
AcDbEntity
  8
0
  6
Continuous
 62
     7
370
     0
100
AcDbLine
 10
15.2586890149
 20
1.5875
 30
0.0
 11
15.2586890149
 21
0.9525
 31
0.0
  0
LINE
  5
7B
330
1F
100
AcDbEntity
  8
0
  6
Continuous
 62
     7
370
     0
100
AcDbLine
 10
18.9068679663
 20
0.9525
 30
0.0
 11
18.9068679663
 21
0.635
 31
0.0
  0
LINE
  5
7C
330
1F
100
AcDbEntity
  8
0
  6
Continuous
 62
     7
370
     0
100
AcDbLine
 10
19.9944382951
 20
1.5875
 30
0.0
 11
19.9944382951
 21
0.9525
 31
0.0
  0
LINE
  5
7D
330
1F
100
AcDbEntity
  8
0
  6
Continuous
 62
     7
370
     0
100
AcDbLine
 10
15.9364927501
 20
0.9525
 30
0.0
 11
15.9364927501
 21
0.635
 31
0.0
  0
LINE
  5
7E
330
1F
100
AcDbEntity
  8
0
  6
Continuous
 62
     7
370
     0
100
AcDbLine
 10
13.5751449197
 20
4.445
 30
0.0
 11
13.5751449197
 21
2.159
 31
0.0
  0
LINE
  5
7F
330
1F
100
AcDbEntity
  8
0
  6
Continuous
 62
     7
370
     0
100
AcDbLine
 10
7.9375
 20
1.2127192679
 30
0.0
 11
11.2826512182
 21
1.2127192679
 31
0.0
  0
LINE
  5
80
330
1F
100
AcDbEntity
  8
0
  6
Continuous
 62
     7
370
     0
100
AcDbLine
 10
11.2826512182
 20
4.064
 30
0.0
 11
14.7488884565
 21
4.064
 31
0.0
  0
LINE
  5
81
330
1F
100
AcDbEntity
  8
0
  6
Continuous
 62
     7
370
     0
100
AcDbLine
 10
12.3659981434
 20
4.445
 30
0.0
 11
12.3659981434
 21
2.159
 31
0.0
  0
LINE
  5
82
330
1F
100
AcDbEntity
  8
0
  6
Continuous
 62
     7
370
     0
100
AcDbLine
 10
7.9375
 20
1.8477192679
 30
0.0
 11
11.2826512182
 21
1.8477192679
 31
0.0
  0
LINE
  5
83
330
1F
100
AcDbEntity
  8
0
  6
Continuous
 62
     7
370
     0
100
AcDbLine
 10
11.2826512182
 20
2.4705117247
 30
0.0
 11
7.9375
 21
2.4705117247
 31
0.0
  0
LINE
  5
84
330
1F
100
AcDbEntity
  8
0
  6
Continuous
 62
     7
370
     0
100
AcDbLine
 10
20.6375
 20
0.635
 30
0.0
 11
0.9525
 21
0.635
 31
0.0
  0
LINE
  5
85
330
1F
100
AcDbEntity
  8
0
  6
Continuous
 62
     7
370
     0
100
AcDbLine
 10
11.2826512182
 20
3.683
 30
0.0
 11
20.6375
 21
3.683
 31
0.0
  0
LINE
  5
86
330
1F
100
AcDbEntity
  8
0
  6
Continuous
 62
     7
370
     0
100
AcDbLine
 10
11.2826512182
 20
3.302
 30
0.0
 11
14.7488884565
 21
3.302
 31
0.0
  0
LINE
  5
87
330
1F
100
AcDbEntity
  8
0
  6
Continuous
 62
     7
370
     0
100
AcDbLine
 10
11.2826512182
 20
2.921
 30
0.0
 11
14.7488884565
 21
2.921
 31
0.0
  0
LINE
  5
88
330
1F
100
AcDbEntity
  8
0
  6
Continuous
 62
     7
370
     0
100
AcDbLine
 10
11.2826512182
 20
2.54
 30
0.0
 11
14.7488884565
 21
2.54
 31
0.0
  0
MTEXT
  5
8A
330
1F
100
AcDbEntity
  8
0
  6
Continuous
 62
     7
370
     0
100
AcDbMText
 10
15.9839174733
 20
0.8609905639
 30
0.0
 40
0.127
 41
0.0
 71
     1
 72
     1
  1
WEIGHT:
  7
SLDTEXTSTYLE0
 73
     1
 44
1.0
  0
MTEXT
  5
8B
330
1F
100
AcDbEntity
  8
0
  6
Continuous
 62
     7
370
     0
100
AcDbMText
 10
20.2725422221
 20
1.3796125623
 30
0.0
 40
0.3175
 41
0.0
 71
     2
 72
     1
  1
3
  7
SLDTEXTSTYLE0
 73
     1
 44
1.0
  0
MTEXT
  5
8C
330
1F
100
AcDbEntity
  8
0
  6
Continuous
 62
     7
370
     0
100
AcDbMText
 10
17.6241634196
 20
1.3845704358
 30
0.0
 40
0.3175
 41
0.0
 71
     2
 72
     1
  1
long_support
  7
SLDTEXTSTYLE0
 73
     1
 44
1.0
  0
MTEXT
  5
8D
330
1F
100
AcDbEntity
  8
0
  6
Continuous
 62
     7
370
     0
100
AcDbMText
 10
9.6582651508
 20
2.1777590528
 30
0.0
 40
0.15875
 41
0.0
 71
     2
 72
     1
  1
NYLON
  7
SLDTEXTSTYLE0
 73
     1
 44
1.0
  0
MTEXT
  5
8F
330
1F
100
AcDbEntity
  8
0
  6
Continuous
 62
     7
370
     0
100
AcDbMText
 10
17.6880029741
 20
4.2726159926
 30
0.0
 40
0.396875
 41
0.0
 71
     2
 72
     1
  1
UChicago / KICP
  7
SLDTEXTSTYLE1
 73
     1
 44
1.0
  0
MTEXT
  5
90
330
1F
100
AcDbEntity
  8
0
  6
Continuous
 62
     7
370
     0
100
AcDbMText
 10
12.9734845864
 20
3.9409759178
 30
0.0
 40
0.15875
 41
0.0
 71
     2
 72
     1
  1
D. SMITH
  7
SLDTEXTSTYLE0
 73
     1
 44
1.0
  0
MTEXT
  5
91
330
1F
100
AcDbEntity
  8
0
  6
Continuous
 62
     7
370
     0
100
AcDbMText
 10
14.1736086755
 20
3.9427212761
 30
0.0
 40
0.15875
 41
0.0
 71
     2
 72
     1
  1
9/23/2020
  7
SLDTEXTSTYLE0
 73
     1
 44
1.0
  0
MTEXT
  5
92
330
1F
100
AcDbEntity
  8
0
  6
Continuous
 62
     7
370
     0
100
AcDbMText
 10
17.7471850118
 20
2.9682834529
 30
0.0
 40
0.47625
 41
0.0
 71
     2
 72
     1
  1
Long Support
  7
SLDTEXTSTYLE0
 73
     1
 44
1.0
  0
MTEXT
  5
93
330
1F
100
AcDbEntity
  8
0
  6
Continuous
 62
     7
370
     0
100
AcDbMText
 10
11.3904436139
 20
2.0828163892
 30
0.0
 40
0.1322916667
 41
0.0
 71
     1
 72
     1
  1
COMMENTS:
  7
SLDTEXTSTYLE0
 73
     1
 44
1.0
  0
MTEXT
  5
95
330
1F
100
AcDbEntity
  8
0
  6
Continuous
 62
     7
370
     0
100
AcDbMText
 10
18.9495127328
 20
0.8597750955
 30
0.0
 40
0.127
 41
0.0
 71
     1
 72
     1
  1
SHEET 1 OF 1
  7
SLDTEXTSTYLE2
 73
     1
 44
1.0
  0
MTEXT
  5
96
330
1F
100
AcDbEntity
  8
0
  6
Continuous
 62
     7
370
     0
100
AcDbMText
 10
11.384319546
 20
2.4357824865
 30
0.0
 40
0.1322916667
 41
0.0
 71
     1
 72
     1
  1
Q.A.
  7
SLDTEXTSTYLE0
 73
     1
 44
1.0
  0
MTEXT
  5
97
330
1F
100
AcDbEntity
  8
0
  6
Continuous
 62
     7
370
     0
100
AcDbMText
 10
11.3744738825
 20
2.8100086538
 30
0.0
 40
0.1322916667
 41
0.0
 71
     1
 72
     1
  1
MFG APPR.
  7
SLDTEXTSTYLE0
 73
     1
 44
1.0
  0
MTEXT
  5
98
330
1F
100
AcDbEntity
  8
0
  6
Continuous
 62
     7
370
     0
100
AcDbMText
 10
11.3733144991
 20
3.1882835676
 30
0.0
 40
0.1322916667
 41
0.0
 71
     1
 72
     1
  1
ENG APPR.
  7
SLDTEXTSTYLE0
 73
     1
 44
1.0
  0
MTEXT
  5
99
330
1F
100
AcDbEntity
  8
0
  6
Continuous
 62
     7
370
     0
100
AcDbMText
 10
11.3720105336
 20
3.5499619449
 30
0.0
 40
0.1322916667
 41
0.0
 71
     1
 72
     1
  1
CHECKED
  7
SLDTEXTSTYLE0
 73
     1
 44
1.0
  0
MTEXT
  5
9A
330
1F
100
AcDbEntity
  8
0
  6
Continuous
 62
     7
370
     0
100
AcDbMText
 10
11.3659283185
 20
3.9557550262
 30
0.0
 40
0.1322916667
 41
0.0
 71
     1
 72
     1
  1
DRAWN
  7
SLDTEXTSTYLE0
 73
     1
 44
1.0
  0
MTEXT
  5
9B
330
1F
100
AcDbEntity
  8
0
  6
Continuous
 62
     7
370
     0
100
AcDbMText
 10
13.9386213552
 20
4.3251031101
 30
0.0
 40
0.1322916667
 41
0.0
 71
     1
 72
     1
  1
DATE
  7
SLDTEXTSTYLE0
 73
     1
 44
1.0
  0
MTEXT
  5
9C
330
1F
100
AcDbEntity
  8
0
  6
Continuous
 62
     7
370
     0
100
AcDbMText
 10
12.7157889653
 20
4.3302467551
 30
0.0
 40
0.1322916667
 41
0.0
 71
     1
 72
     1
  1
NAME
  7
SLDTEXTSTYLE0
 73
     1
 44
1.0
  0
INSERT
  5
A3
330
1F
100
AcDbEntity
  8
0
  6
Continuous
 62
     7
370
     0
100
AcDbBlockReference
  2
SW_NOTE_0
 10
8.0687156279
 20
4.0430199069
 30
0.0
  0
MTEXT
  5
A5
330
1F
100
AcDbEntity
  8
0
  6
Continuous
 62
     7
370
     0
100
AcDbMText
 10
8.2508970063
 20
1.0044297073
 30
0.0
 40
0.15875
 41
0.0
 71
     1
 72
     1
  1
DO  NOT  SCALE  DRAWING
  7
SLDTEXTSTYLE3
 73
     1
 44
1.0
  0
MTEXT
  5
A6
330
1F
100
AcDbEntity
  8
0
  6
Continuous
 62
     7
370
     0
100
AcDbMText
 10
8.0482817028
 20
1.7381657993
 30
0.0
 40
0.1322916667
 41
0.0
 71
     1
 72
     1
  1
FINISH
  7
SLDTEXTSTYLE0
 73
     1
 44
1.0
  0
MTEXT
  5
A7
330
1F
100
AcDbEntity
  8
0
  6
Continuous
 62
     7
370
     0
100
AcDbMText
 10
8.0512483931
 20
2.3860586667
 30
0.0
 40
0.1322916667
 41
0.0
 71
     1
 72
     1
  1
MATERIAL
  7
SLDTEXTSTYLE0
 73
     1
 44
1.0
  0
MTEXT
  5
A8
330
1F
100
AcDbEntity
  8
0
  6
Continuous
 62
     7
370
     0
100
AcDbMText
 10
20.0979432657
 20
1.5156665754
 30
0.0
 40
0.1322916667
 41
0.0
 71
     1
 72
     1
  1
REV.
  7
SLDTEXTSTYLE0
 73
     1
 44
1.0
  0
MTEXT
  5
A9
330
1F
100
AcDbEntity
  8
0
  6
Continuous
 62
     7
370
     0
100
AcDbMText
 10
14.8765379395
 20
1.3570895663
 30
0.0
 40
0.3175
 41
0.0
 71
     1
 72
     1
  1
A
  7
SLDTEXTSTYLE0
 73
     1
 44
1.0
  0
MTEXT
  5
AB
330
1F
100
AcDbEntity
  8
0
  6
Continuous
 62
     7
370
     0
100
AcDbMText
 10
15.3228552054
 20
1.5235247451
 30
0.0
 40
0.1322916667
 41
0.0
 71
     1
 72
     1
  1
DWG.  NO.
  7
SLDTEXTSTYLE4
 73
     1
 44
1.0
  0
MTEXT
  5
AC
330
1F
100
AcDbEntity
  8
0
  6
Continuous
 62
     7
370
     0
100
AcDbMText
 10
14.8277203837
 20
1.5339153075
 30
0.0
 40
0.1322916667
 41
0.0
 71
     1
 72
     1
  1
SIZE
  7
SLDTEXTSTYLE0
 73
     1
 44
1.0
  0
MTEXT
  5
AD
330
1F
100
AcDbEntity
  8
0
  6
Continuous
 62
     7
370
     0
100
AcDbMText
 10
14.8154191859
 20
0.8679120851
 30
0.0
 40
0.1322916667
 41
0.0
 71
     1
 72
     1
  1
SCALE:1:5
  7
SLDTEXTSTYLE0
 73
     1
 44
1.0
  0
LINE
  5
AE
330
1F
100
AcDbEntity
  8
0
  6
Continuous
 62
     7
370
    15
100
AcDbLine
 10
4.3948913609
 20
22.4437105325
 30
0.0
 11
4.3948913609
 21
10.2517105325
 31
0.0
  0
LINE
  5
AF
330
1F
100
AcDbEntity
  8
0
  6
Continuous
 62
     7
370
    15
100
AcDbLine
 10
4.3948913609
 20
22.4437105325
 30
0.0
 11
4.6488913609
 21
22.4437105325
 31
0.0
  0
LINE
  5
B0
330
1F
100
AcDbEntity
  8
0
  6
Continuous
 62
     7
370
    15
100
AcDbLine
 10
4.6488913609
 20
22.4437105325
 30
0.0
 11
4.6488913609
 21
10.2517105325
 31
0.0
  0
LINE
  5
B1
330
1F
100
AcDbEntity
  8
0
  6
Continuous
 62
     7
370
    15
100
AcDbLine
 10
4.3948913609
 20
10.2517105325
 30
0.0
 11
4.6488913609
 21
10.2517105325
 31
0.0
  0
CIRCLE
  5
B2
330
1F
100
AcDbEntity
  8
0
  6
Continuous
 62
     7
370
    15
100
AcDbCircle
 10
4.5218913609
 20
17.1356558426
 30
0.0
 40
0.0226060000000006
  0
CIRCLE
  5
B3
330
1F
100
AcDbEntity
  8
0
  6
Continuous
 62
     7
370
    15
100
AcDbCircle
 10
4.5218913609
 20
10.6067652225
 30
0.0
 40
0.0226060000000006
  0
CIRCLE
  5
B4
330
1F
100
AcDbEntity
  8
0
  6
Continuous
 62
     7
370
    15
100
AcDbCircle
 10
4.5218913609
 20
15.5597652225
 30
0.0
 40
0.0226060000000006
  0
CIRCLE
  5
B5
330
1F
100
AcDbEntity
  8
0
  6
Continuous
 62
     7
370
    15
100
AcDbCircle
 10
4.5218913609
 20
22.0886558426
 30
0.0
 40
0.0226060000000006
  0
DIMENSION
  5
B6
330
1F
100
AcDbEntity
  8
0
  6
Continuous
 62
     7
370
     0
100
AcDbDimension
  2
_D
 10
3.3948913609
 20
10.2517105325
 30
0.0
 11
3.3948913609
 21
14.8577629659
 31
0.0
 70
   160
  1
<>
 71
     2
 42
-1.0
  3
SLDDIMSTYLE0
100
AcDbAlignedDimension
 13
4.3948913609
 23
22.4437105325
 33
0.0
 14
4.3948913609
 24
10.2517105325
 34
0.0
 50
90.0
100
AcDbRotatedDimension
  0
DIMENSION
  5
CB
330
1F
100
AcDbEntity
  8
0
  6
Continuous
 62
     7
370
     0
100
AcDbDimension
  2
_D_1
 10
4.5008370324
 20
15.5515343972
 30
0.0
 11
10.3268026122
 21
16.3937720199
 31
0.0
 70
   163
  1
4X <> THRU ALL\P#4-40 UNC  TAPPED THRU ALL\P
 71
     1
 42
-1.0
  3
SLDDIMSTYLE1
100
AcDbDiametricDimension
 15
4.5429456895
 25
15.5679960478
 35
0.0
 40
0.0
  0
DIMENSION
  5
D7
330
1F
100
AcDbEntity
  8
0
  6
Continuous
 62
     7
370
     0
100
AcDbDimension
  2
_D_2
 10
5.6488913609
 20
10.6067652225
 30
0.0
 11
5.6488913609
 21
9.6308778152
 31
0.0
 70
   160
  1
<>
 71
     2
 42
-1.0
  3
SLDDIMSTYLE2
100
AcDbAlignedDimension
 13
4.6488913609
 23
10.2517105325
 33
0.0
 14
4.5952973609
 24
10.6067652225
 34
0.0
 50
90.0
100
AcDbRotatedDimension
  0
DIMENSION
  5
ED
330
1F
100
AcDbEntity
  8
0
  6
Continuous
 62
     7
370
     0
100
AcDbDimension
  2
_D_3
 10
6.6176404516
 20
15.5597652225
 30
0.0
 11
6.6176404516
 21
12.9424384816
 31
0.0
 70
   160
  1
<>
 71
     2
 42
-1.0
  3
SLDDIMSTYLE0
100
AcDbAlignedDimension
 13
4.6488913609
 23
10.2517105325
 33
0.0
 14
4.5952973609
 24
15.5597652225
 34
0.0
 50
90.0
100
AcDbRotatedDimension
  0
DIMENSION
  5
101
330
1F
100
AcDbEntity
  8
0
  6
Continuous
 62
     7
370
     0
100
AcDbDimension
  2
_D_4
 10
5.6488913609
 20
22.0886558426
 30
0.0
 11
5.6488913609
 21
23.4437105325
 31
0.0
 70
   160
  1
<>
 71
     2
 42
-1.0
  3
SLDDIMSTYLE2
100
AcDbAlignedDimension
 13
4.6488913609
 23
22.4437105325
 33
0.0
 14
4.5952973609
 24
22.0886558426
 34
0.0
 50
90.0
100
AcDbRotatedDimension
  0
DIMENSION
  5
116
330
1F
100
AcDbEntity
  8
0
  6
Continuous
 62
     7
370
     0
100
AcDbDimension
  2
_D_5
 10
6.6176404516
 20
17.1356558426
 30
0.0
 11
6.6176404516
 21
20.3289762371
 31
0.0
 70
   160
  1
<>
 71
     2
 42
-1.0
  3
SLDDIMSTYLE0
100
AcDbAlignedDimension
 13
4.6488913609
 23
22.4437105325
 33
0.0
 14
4.5952973609
 24
17.1356558426
 34
0.0
 50
90.0
100
AcDbRotatedDimension
  0
INSERT
  5
135
330
1F
100
AcDbEntity
  8
0
  6
Continuous
 62
     7
370
     0
100
AcDbBlockReference
  2
SW_CENTERMARKSYMBOL_0
 10
4.5218913609
 20
15.5597652225
 30
0.0
  0
INSERT
  5
141
330
1F
100
AcDbEntity
  8
0
  6
Continuous
 62
     7
370
     0
100
AcDbBlockReference
  2
SW_CENTERMARKSYMBOL_1
 10
4.5218913609
 20
10.6067652225
 30
0.0
  0
INSERT
  5
14D
330
1F
100
AcDbEntity
  8
0
  6
Continuous
 62
     7
370
     0
100
AcDbBlockReference
  2
SW_CENTERMARKSYMBOL_2
 10
4.5218913609
 20
17.1356558426
 30
0.0
  0
INSERT
  5
159
330
1F
100
AcDbEntity
  8
0
  6
Continuous
 62
     7
370
     0
100
AcDbBlockReference
  2
SW_CENTERMARKSYMBOL_3
 10
4.5218913609
 20
22.0886558426
 30
0.0
  0
CIRCLE
  5
15A
330
1F
100
AcDbEntity
  8
0
  6
HIDDEN
 62
     7
370
     0
100
AcDbCircle
 10
4.5218913609
 20
15.5597652225
 30
0.0
 40
0.0284480000000009
  0
CIRCLE
  5
15B
330
1F
100
AcDbEntity
  8
0
  6
HIDDEN
 62
     7
370
     0
100
AcDbCircle
 10
4.5218913609
 20
17.1356558426
 30
0.0
 40
0.0284480000000045
  0
CIRCLE
  5
15C
330
1F
100
AcDbEntity
  8
0
  6
HIDDEN
 62
     7
370
     0
100
AcDbCircle
 10
4.5218913609
 20
10.6067652225
 30
0.0
 40
0.0284479999999991
  0
CIRCLE
  5
15D
330
1F
100
AcDbEntity
  8
0
  6
HIDDEN
 62
     7
370
     0
100
AcDbCircle
 10
4.5218913609
 20
22.0886558426
 30
0.0
 40
0.0284480000000009
  0
CIRCLE
  5
15E
330
1F
100
AcDbEntity
  8
0
  6
Continuous
 62
     7
370
    15
100
AcDbCircle
 10
4.5218913609
 20
24.618124137
 30
0.0
 40
0.051053999999997
  0
LINE
  5
15F
330
1F
100
AcDbEntity
  8
0
  6
Continuous
 62
     7
370
    15
100
AcDbLine
 10
4.3948913609
 20
24.745124137
 30
0.0
 11
4.3948913609
 21
24.491124137
 31
0.0
  0
LINE
  5
160
330
1F
100
AcDbEntity
  8
0
  6
Continuous
 62
     7
370
    15
100
AcDbLine
 10
4.6488913609
 20
24.745124137
 30
0.0
 11
4.3948913609
 21
24.745124137
 31
0.0
  0
LINE
  5
161
330
1F
100
AcDbEntity
  8
0
  6
Continuous
 62
     7
370
    15
100
AcDbLine
 10
4.6488913609
 20
24.491124137
 30
0.0
 11
4.6488913609
 21
24.745124137
 31
0.0
  0
LINE
  5
162
330
1F
100
AcDbEntity
  8
0
  6
Continuous
 62
     7
370
    15
100
AcDbLine
 10
4.3948913609
 20
24.491124137
 30
0.0
 11
4.6488913609
 21
24.491124137
 31
0.0
  0
DIMENSION
  5
163
330
1F
100
AcDbEntity
  8
0
  6
Continuous
 62
     7
370
     0
100
AcDbDimension
  2
_D_6
 10
4.4962758448
 20
24.5739612992
 30
0.0
 11
9.3376644411
 21
25.6383682841
 31
0.0
 70
   163
  1
<> {\fGDT;x} 1.27[0.50]\P#1/4-20 UNC  TAPPED {\fGDT;x} 1.14[0.45]\P
 71
     1
 42
-1.0
  3
SLDDIMSTYLE3
100
AcDbDiametricDimension
 15
4.5475068771
 25
24.6622869749
 35
0.0
 40
0.0
  0
INSERT
  5
184
330
1F
100
AcDbEntity
  8
0
  6
Continuous
 62
     7
370
     0
100
AcDbBlockReference
  2
SW_CENTERMARKSYMBOL_4
 10
4.5218913609
 20
24.618124137
 30
0.0
  0
CIRCLE
  5
185
330
1F
100
AcDbEntity
  8
0
  6
HIDDEN
 62
     7
370
     0
100
AcDbCircle
 10
4.5218913609
 20
24.618124137
 30
0.0
 40
0.0635000000000012
  0
CIRCLE
  5
186
330
1F
100
AcDbEntity
  8
0
  6
HIDDEN
 62
     7
370
     0
100
AcDbCircle
 10
4.5218913609
 20
24.618124137
 30
0.0
 40
0.0634999999999977
  0
LINE
  5
187
330
1F
100
AcDbEntity
  8
0
  6
Continuous
 62
     7
370
    15
100
AcDbLine
 10
4.6488913609
 20
7.6907972054
 30
0.0
 11
4.3948913609
 21
7.6907972054
 31
0.0
  0
LINE
  5
188
330
1F
100
AcDbEntity
  8
0
  6
Continuous
 62
     7
370
    15
100
AcDbLine
 10
4.3948913609
 20
7.6907972054
 30
0.0
 11
4.3948913609
 21
7.9447972054
 31
0.0
  0
LINE
  5
189
330
1F
100
AcDbEntity
  8
0
  6
Continuous
 62
     7
370
    15
100
AcDbLine
 10
4.3948913609
 20
7.9447972054
 30
0.0
 11
4.6488913609
 21
7.9447972054
 31
0.0
  0
LINE
  5
18A
330
1F
100
AcDbEntity
  8
0
  6
Continuous
 62
     7
370
    15
100
AcDbLine
 10
4.6488913609
 20
7.9447972054
 30
0.0
 11
4.6488913609
 21
7.6907972054
 31
0.0
  0
CIRCLE
  5
18B
330
1F
100
AcDbEntity
  8
0
  6
Continuous
 62
     7
370
    15
100
AcDbCircle
 10
4.5218913609
 20
7.8177972054
 30
0.0
 40
0.0510539999999988
  0
DIMENSION
  5
18C
330
1F
100
AcDbEntity
  8
0
  6
Continuous
 62
     7
370
     0
100
AcDbDimension
  2
_D_7
 10
4.3948913609
 20
6.8354318782
 30
0.0
 11
6.0419430798
 21
6.8354318782
 31
0.0
 70
   160
  1
<>
 71
     2
 42
-1.0
  3
SLDDIMSTYLE2
100
AcDbAlignedDimension
 13
4.6488913609
 23
7.6907972054
 33
0.0
 14
4.3948913609
 24
7.6907972054
 34
0.0
100
AcDbRotatedDimension
  0
DIMENSION
  5
1A0
330
1F
100
AcDbEntity
  8
0
  6
Continuous
 62
     7
370
     0
100
AcDbDimension
  2
_D_8
 10
3.6567215268
 20
7.9447972054
 30
0.0
 11
3.6567215268
 21
8.8546347786
 31
0.0
 70
   160
  1
<>
 71
     2
 42
-1.0
  3
SLDDIMSTYLE2
100
AcDbAlignedDimension
 13
4.3948913609
 23
7.6907972054
 33
0.0
 14
4.3948913609
 24
7.9447972054
 34
0.0
 50
90.0
100
AcDbRotatedDimension
  0
DIMENSION
  5
1B5
330
1F
100
AcDbEntity
  8
0
  6
Continuous
 62
     7
370
     0
100
AcDbDimension
  2
_D_9
 10
4.4708523726
 20
7.819035181
 30
0.0
 11
10.4767088205
 21
7.7533050205
 31
0.0
 70
   163
  1
<> {\fGDT;x} 1.27[0.50]\P1/4-20 UNC  {\fGDT;x} 1.14[0.45]\P
 71
     1
 42
-1.0
  3
SLDDIMSTYLE3
100
AcDbDiametricDimension
 15
4.5729303493
 25
7.8165592299
 35
0.0
 40
0.0
  0
INSERT
  5
1CE
330
1F
100
AcDbEntity
  8
0
  6
Continuous
 62
     7
370
     0
100
AcDbBlockReference
  2
SW_CENTERMARKSYMBOL_5
 10
4.5218913609
 20
7.8177972054
 30
0.0
  0
CIRCLE
  5
1CF
330
1F
100
AcDbEntity
  8
0
  6
HIDDEN
 62
     7
370
     0
100
AcDbCircle
 10
4.5218913609
 20
7.8177972054
 30
0.0
 40
0.0634999999999994
  0
CIRCLE
  5
1D0
330
1F
100
AcDbEntity
  8
0
  6
HIDDEN
 62
     7
370
     0
100
AcDbCircle
 10
4.5218913609
 20
7.8177972054
 30
0.0
 40
0.0635000000000003
  0
LWPOLYLINE
  5
1D1
330
1F
100
AcDbEntity
  8
0
  6
Continuous
 62
     7
370
    15
100
AcDbPolyline
 90
       17
 70
   128
 43
0.0
 10
17.3136533042
 20
14.8335647191
 10
17.3124365295
 20
14.8413309951
 10
17.3089714483
 20
14.8493197842
 10
17.3037855879
 20
14.8563148656
 10
17.2976684483
 20
14.8612513016
 10
17.2915513088
 20
14.8633775645
 10
17.2863654483
 20
14.8623699502
 10
17.2829003671
 20
14.8583818587
 10
17.2816835924
 20
14.8520204409
 10
17.2829003671
 20
14.8442541648
 10
17.2863654483
 20
14.8362653758
 10
17.2915513088
 20
14.8292702944
 10
17.2976684483
 20
14.8243338584
 10
17.3037855879
 20
14.8222075954
 10
17.3089714483
 20
14.8232152098
 10
17.3124365295
 20
14.8272033012
 10
17.3136533042
 20
14.8335647191
  0
LWPOLYLINE
  5
1D2
330
1F
100
AcDbEntity
  8
0
  6
Continuous
 62
     7
370
    15
100
AcDbPolyline
 90
       17
 70
   128
 43
0.0
 10
17.3136533042
 20
18.8778913604
 10
17.3124365295
 20
18.8856576364
 10
17.3089714483
 20
18.8936464254
 10
17.3037855879
 20
18.9006415068
 10
17.2976684483
 20
18.9055779428
 10
17.2915513088
 20
18.9077042058
 10
17.2863654483
 20
18.9066965915
 10
17.2829003671
 20
18.9027085
 10
17.2816835924
 20
18.8963470821
 10
17.2829003671
 20
18.8885808061
 10
17.2863654483
 20
18.880592017
 10
17.2915513088
 20
18.8735969356
 10
17.2976684483
 20
18.8686604997
 10
17.3037855879
 20
18.8665342367
 10
17.3089714483
 20
18.867541851
 10
17.3124365295
 20
18.8715299425
 10
17.3136533042
 20
18.8778913604
  0
LINE
  5
1D3
330
1F
100
AcDbEntity
  8
0
  6
Continuous
 62
     7
370
    15
100
AcDbLine
 10
17.2078658871
 20
24.5599834288
 30
0.0
 11
17.2078658871
 21
14.6047178503
 31
0.0
  0
LINE
  5
1D4
330
1F
100
AcDbEntity
  8
0
  6
Continuous
 62
     7
370
    15
100
AcDbLine
 10
17.2078658871
 20
24.5599834288
 30
0.0
 11
17.3874710095
 21
24.4562995986
 31
0.0
  0
LINE
  5
1D5
330
1F
100
AcDbEntity
  8
0
  6
Continuous
 62
     7
370
    15
100
AcDbLine
 10
17.3874710095
 20
24.4562995986
 30
0.0
 11
17.3874710095
 21
14.5010340201
 31
0.0
  0
LINE
  5
1D6
330
1F
100
AcDbEntity
  8
0
  6
Continuous
 62
     7
370
    15
100
AcDbLine
 10
17.2078658871
 20
14.6047178503
 30
0.0
 11
17.3874710095
 21
14.5010340201
 31
0.0
  0
LWPOLYLINE
  5
1D7
330
1F
100
AcDbEntity
  8
0
  6
Continuous
 62
     7
370
    15
100
AcDbPolyline
 90
       17
 70
   128
 43
0.0
 10
17.3136533042
 20
20.1646703668
 10
17.3124365295
 20
20.1724366428
 10
17.3089714483
 20
20.1804254318
 10
17.3037855879
 20
20.1874205132
 10
17.2976684483
 20
20.1923569492
 10
17.2915513088
 20
20.1944832122
 10
17.2863654483
 20
20.1934755979
 10
17.2829003671
 20
20.1894875064
 10
17.2816835924
 20
20.1831260885
 10
17.2829003671
 20
20.1753598125
 10
17.2863654483
 20
20.1673710234
 10
17.2915513088
 20
20.160375942
 10
17.2976684483
 20
20.155439506
 10
17.3037855879
 20
20.1533132431
 10
17.3089714483
 20
20.1543208574
 10
17.3124365295
 20
20.1583089489
 10
17.3136533042
 20
20.1646703668
  0
LWPOLYLINE
  5
1D8
330
1F
100
AcDbEntity
  8
0
  6
Continuous
 62
     7
370
    15
100
AcDbPolyline
 90
       17
 70
   128
 43
0.0
 10
17.3136533042
 20
24.208997008
 10
17.3124365295
 20
24.216763284
 10
17.3089714483
 20
24.2247520731
 10
17.3037855879
 20
24.2317471545
 10
17.2976684483
 20
24.2366835905
 10
17.2915513088
 20
24.2388098535
 10
17.2863654483
 20
24.2378022391
 10
17.2829003671
 20
24.2338141477
 10
17.2816835924
 20
24.2274527298
 10
17.2829003671
 20
24.2196864538
 10
17.2863654483
 20
24.2116976647
 10
17.2915513088
 20
24.2047025833
 10
17.2976684483
 20
24.1997661473
 10
17.3037855879
 20
24.1976398844
 10
17.3089714483
 20
24.1986474987
 10
17.3124365295
 20
24.2026355902
 10
17.3136533042
 20
24.208997008
  0
LINE
  5
1D9
330
1F
100
AcDbEntity
  8
0
  6
Continuous
 62
     7
370
    15
100
AcDbLine
 10
17.3874710095
 20
24.4562995986
 30
0.0
 11
17.567076132
 21
24.5599834288
 31
0.0
  0
LINE
  5
1DA
330
1F
100
AcDbEntity
  8
0
  6
Continuous
 62
     7
370
    15
100
AcDbLine
 10
17.567076132
 20
24.5599834288
 30
0.0
 11
17.567076132
 21
14.6047178503
 31
0.0
  0
LINE
  5
1DB
330
1F
100
AcDbEntity
  8
0
  6
Continuous
 62
     7
370
    15
100
AcDbLine
 10
17.3874710095
 20
14.5010340201
 30
0.0
 11
17.567076132
 21
14.6047178503
 31
0.0
  0
LINE
  5
1DC
330
1F
100
AcDbEntity
  8
0
  6
Continuous
 62
     7
370
    15
100
AcDbLine
 10
17.3874710095
 20
24.663667259
 30
0.0
 11
17.2078658871
 21
24.5599834288
 31
0.0
  0
LINE
  5
1DD
330
1F
100
AcDbEntity
  8
0
  6
Continuous
 62
     7
370
    15
100
AcDbLine
 10
17.567076132
 20
24.5599834288
 30
0.0
 11
17.3874710095
 21
24.663667259
 31
0.0
  0
LWPOLYLINE
  5
1DE
330
1F
100
AcDbEntity
  8
0
  6
Continuous
 62
     7
370
    15
100
AcDbPolyline
 90
       17
 70
   128
 43
0.0
 10
17.3513703799
 20
24.5391429789
 10
17.3679334896
 20
24.5327540688
 10
17.3874710095
 20
24.5305105819
 10
17.4070085295
 20
24.5327540688
 10
17.4235716392
 20
24.5391429789
 10
17.4346387552
 20
24.5487046586
 10
17.4385250095
 20
24.5599834288
 10
17.4346387552
 20
24.571262199
 10
17.4235716392
 20
24.5808238787
 10
17.4070085295
 20
24.5872127888
 10
17.3874710095
 20
24.5894562757
 10
17.3679334896
 20
24.5872127888
 10
17.3513703799
 20
24.5808238787
 10
17.3403032639
 20
24.571262199
 10
17.3364170095
 20
24.5599834288
 10
17.3403032639
 20
24.5487046586
 10
17.3513703799
 20
24.5391429789
  0
LWPOLYLINE
  5
1DF
330
1F
100
AcDbEntity
  8
0
  6
HIDDEN
 62
     7
370
     0
100
AcDbPolyline
 90
       17
 70
   128
 43
0.0
 10
17.4323722902
 20
14.6306388078
 10
17.4117714075
 20
14.6385852134
 10
17.3874710095
 20
14.64137562
 10
17.3631706116
 20
14.6385852134
 10
17.3425697289
 20
14.6306388078
 10
17.3288046592
 20
14.6187461714
 10
17.3239710095
 20
14.6047178503
 10
17.3288046592
 20
14.5906895292
 10
17.3425697289
 20
14.5787968927
 10
17.3631706116
 20
14.5708504871
 10
17.3874710095
 20
14.5680600806
 10
17.4117714075
 20
14.5708504871
 10
17.4323722902
 20
14.5787968927
 10
17.4461373599
 20
14.5906895292
 10
17.4509710095
 20
14.6047178503
 10
17.4461373599
 20
14.6187461714
 10
17.4323722902
 20
14.6306388078
  0
LWPOLYLINE
  5
1E0
330
1F
100
AcDbEntity
  8
0
  6
HIDDEN
 62
     7
370
     0
100
AcDbPolyline
 90
       17
 70
   128
 43
0.0
 10
17.4323722902
 20
24.5859043864
 10
17.4461373599
 20
24.5740117499
 10
17.4509710095
 20
24.5599834288
 10
17.4461373599
 20
24.5459551077
 10
17.4323722902
 20
24.5340624712
 10
17.4117714075
 20
24.5261160657
 10
17.3874710095
 20
24.5233256591
 10
17.3631706116
 20
24.5261160657
 10
17.3425697289
 20
24.5340624712
 10
17.3288046592
 20
24.5459551077
 10
17.3239710095
 20
24.5599834288
 10
17.3288046592
 20
24.5740117499
 10
17.3425697289
 20
24.5859043864
 10
17.3631706116
 20
24.5938507919
 10
17.3874710095
 20
24.5966411985
 10
17.4117714075
 20
24.5938507919
 10
17.4323722902
 20
24.5859043864
  0
LWPOLYLINE
  5
1E1
330
1F
100
AcDbEntity
  8
0
  6
HIDDEN
 62
     7
370
     0
100
AcDbPolyline
 90
       17
 70
   128
 43
0.0
 10
17.2976684483
 20
18.8638902682
 10
17.289970475
 20
18.8701024124
 10
17.2834444483
 20
18.8789052115
 10
17.2790838967
 20
18.8889585191
 10
17.2775526746
 20
18.8987318102
 10
17.2790838967
 20
18.90673719
 10
17.2834444483
 20
18.9117559119
 10
17.289970475
 20
18.9130239209
 10
17.2976684483
 20
18.9103481743
 10
17.3053664217
 20
18.9041360301
 10
17.3118924483
 20
18.895333231
 10
17.316253
 20
18.8852799234
 10
17.317784222
 20
18.8755066323
 10
17.316253
 20
18.8675012525
 10
17.3118924483
 20
18.8624825306
 10
17.3053664217
 20
18.8612145216
 10
17.2976684483
 20
18.8638902682
  0
LWPOLYLINE
  5
1E2
330
1F
100
AcDbEntity
  8
0
  6
HIDDEN
 62
     7
370
     0
100
AcDbPolyline
 90
       17
 70
   128
 43
0.0
 10
17.2976684483
 20
20.1971271807
 10
17.3053664217
 20
20.1909150365
 10
17.3118924483
 20
20.1821122374
 10
17.316253
 20
20.1720589298
 10
17.317784222
 20
20.1622856387
 10
17.316253
 20
20.1542802589
 10
17.3118924483
 20
20.149261537
 10
17.3053664217
 20
20.147993528
 10
17.2976684483
 20
20.1506692746
 10
17.289970475
 20
20.1568814188
 10
17.2834444483
 20
20.1656842179
 10
17.2790838967
 20
20.1757375255
 10
17.2775526746
 20
20.1855108166
 10
17.2790838967
 20
20.1935161964
 10
17.2834444483
 20
20.1985349183
 10
17.289970475
 20
20.1998029273
 10
17.2976684483
 20
20.1971271807
  0
LWPOLYLINE
  5
1E3
330
1F
100
AcDbEntity
  8
0
  6
HIDDEN
 62
     7
370
     0
100
AcDbPolyline
 90
       17
 70
   128
 43
0.0
 10
17.2976684483
 20
14.819563627
 10
17.289970475
 20
14.8257757711
 10
17.2834444483
 20
14.8345785702
 10
17.2790838967
 20
14.8446318778
 10
17.2775526746
 20
14.854405169
 10
17.2790838967
 20
14.8624105487
 10
17.2834444483
 20
14.8674292706
 10
17.289970475
 20
14.8686972796
 10
17.2976684483
 20
14.866021533
 10
17.3053664217
 20
14.8598093888
 10
17.3118924483
 20
14.8510065898
 10
17.316253
 20
14.8409532822
 10
17.317784222
 20
14.831179991
 10
17.316253
 20
14.8231746112
 10
17.3118924483
 20
14.8181558894
 10
17.3053664217
 20
14.8168878803
 10
17.2976684483
 20
14.819563627
  0
LWPOLYLINE
  5
1E4
330
1F
100
AcDbEntity
  8
0
  6
HIDDEN
 62
     7
370
     0
100
AcDbPolyline
 90
       17
 70
   128
 43
0.0
 10
17.2976684483
 20
24.2414538219
 10
17.3053664217
 20
24.2352416778
 10
17.3118924483
 20
24.2264388787
 10
17.316253
 20
24.2163855711
 10
17.317784222
 20
24.2066122799
 10
17.316253
 20
24.1986069002
 10
17.3118924483
 20
24.1935881783
 10
17.3053664217
 20
24.1923201692
 10
17.2976684483
 20
24.1949959159
 10
17.289970475
 20
24.2012080601
 10
17.2834444483
 20
24.2100108591
 10
17.2790838967
 20
24.2200641667
 10
17.2775526746
 20
24.2298374579
 10
17.2790838967
 20
24.2378428377
 10
17.2834444483
 20
24.2428615595
 10
17.289970475
 20
24.2441295686
 10
17.2976684483
 20
24.2414538219
  0
ENDSEC
  0
SECTION
  2
OBJECTS
  0
DICTIONARY
  5
C
330
0
100
AcDbDictionary
281
     1
  3
ACAD_GROUP
350
D
  3
ACAD_LAYOUT
350
1A
  3
ACAD_MLINESTYLE
350
17
  3
ACAD_PLOTSETTINGS
350
19
  3
ACAD_PLOTSTYLENAME
350
E
  3
ACAD_SCALELIST
350
47
  0
DICTIONARY
  5
D
102
{ACAD_REACTORS
330
C
102
}
330
C
100
AcDbDictionary
281
     1
  0
DICTIONARY
  5
1A
102
{ACAD_REACTORS
330
C
102
}
330
C
100
AcDbDictionary
281
     1
  3
Layout1
350
1E
  3
Layout2
350
26
  3
Model
350
22
  0
DICTIONARY
  5
17
102
{ACAD_REACTORS
330
C
102
}
330
C
100
AcDbDictionary
281
     1
  3
Standard
350
18
  0
DICTIONARY
  5
19
102
{ACAD_REACTORS
330
C
102
}
330
C
100
AcDbDictionary
281
     1
  0
ACDBDICTIONARYWDFLT
  5
E
102
{ACAD_REACTORS
330
C
102
}
330
C
100
AcDbDictionary
281
     1
  3
Normal
350
F
100
AcDbDictionaryWithDefault
340
F
  0
DICTIONARY
  5
47
102
{ACAD_REACTORS
330
C
102
}
330
C
100
AcDbDictionary
281
     1
  3
A0
350
48
  3
A1
350
49
  3
A2
350
4A
  3
A3
350
4B
  3
A4
350
4C
  3
A5
350
4D
  3
A6
350
4E
  3
A7
350
4F
  3
A8
350
50
  3
A9
350
51
  3
B0
350
52
  3
B1
350
53
  3
B2
350
54
  3
B3
350
55
  3
B4
350
56
  3
B5
350
57
  3
B6
350
58
  3
B7
350
59
  3
B8
350
5A
  3
B9
350
5B
  3
C0
350
5C
  3
C1
350
5D
  3
C2
350
5E
  3
C3
350
5F
  3
C4
350
60
  3
C5
350
61
  3
C6
350
62
  3
C7
350
63
  3
C8
350
64
  3
C9
350
65
  3
D0
350
66
  3
D1
350
67
  3
D2
350
68
  0
LAYOUT
  5
1E
102
{ACAD_REACTORS
330
1A
102
}
330
1A
100
AcDbPlotSettings
  1

  2
none_device
  4

  6

 40
0.0
 41
0.0
 42
0.0
 43
0.0
 44
0.0
 45
0.0
 46
0.0
 47
0.0
 48
0.0
 49
0.0
140
0.0
141
0.0
142
1.0
143
1.0
 70
   688
 72
     1
 73
     0
 74
     5
  7

 75
    16
147
1.0
148
0.0
149
0.0
100
AcDbLayout
  1
Layout1
 70
     1
 71
     1
 10
0.0
 20
0.0
 11
420.0
 21
297.0
 12
0.0
 22
0.0
 32
0.0
 14
1.0000000000E+20
 24
1.0000000000E+20
 34
1.0000000000E+20
 15
-1.0000000000E+20
 25
-1.0000000000E+20
 35
-1.0000000000E+20
146
0.0
 13
0.0
 23
0.0
 33
0.0
 16
1.0
 26
0.0
 36
0.0
 17
0.0
 27
1.0
 37
0.0
 76
     0
330
1B
  0
LAYOUT
  5
26
102
{ACAD_REACTORS
330
1A
102
}
330
1A
100
AcDbPlotSettings
  1

  2
none_device
  4

  6

 40
0.0
 41
0.0
 42
0.0
 43
0.0
 44
0.0
 45
0.0
 46
0.0
 47
0.0
 48
0.0
 49
0.0
140
0.0
141
0.0
142
1.0
143
1.0
 70
   688
 72
     1
 73
     0
 74
     5
  7

 75
    16
147
1.0
148
0.0
149
0.0
100
AcDbLayout
  1
Layout2
 70
     1
 71
     2
 10
0.0
 20
0.0
 11
0.0
 21
0.0
 12
0.0
 22
0.0
 32
0.0
 14
0.0
 24
0.0
 34
0.0
 15
0.0
 25
0.0
 35
0.0
146
0.0
 13
0.0
 23
0.0
 33
0.0
 16
1.0
 26
0.0
 36
0.0
 17
0.0
 27
1.0
 37
0.0
 76
     0
330
23
  0
LAYOUT
  5
22
102
{ACAD_REACTORS
330
1A
102
}
330
1A
100
AcDbPlotSettings
  1

  2
none_device
  4
Letter_(8.50_x_11.00_Inches)
  6

 40
6.35
 41
6.35
 42
6.35000508
 43
6.35000508
 44
215.9
 45
279.4
 46
0.0
 47
0.0
 48
0.0
 49
0.0
140
0.0
141
0.0
142
1.0
143
1.0
 70
  1712
 72
     1
 73
     0
 74
     0
  7

 75
     0
147
1.0
148
0.0
149
0.0
100
AcDbLayout
  1
Model
 70
     1
 71
     0
 10
0.0
 20
0.0
 11
21.59
 21
27.94
 12
0.0
 22
0.0
 32
0.0
 14
0.0
 24
0.0
 34
0.0
 15
21.59
 25
27.94
 35
0.0
146
0.0
 13
0.0
 23
0.0
 33
0.0
 16
1.0
 26
0.0
 36
0.0
 17
0.0
 27
1.0
 37
0.0
 76
     0
330
1F
331
29
  0
MLINESTYLE
  5
18
102
{ACAD_REACTORS
330
17
102
}
330
17
100
AcDbMlineStyle
  2
Standard
 70
     0
  3

 62
   256
 51
90.0
 52
90.0
 71
     2
 49
0.5
 62
   256
  6
BYLAYER
 49
-0.5
 62
   256
  6
BYLAYER
  0
ACDBPLACEHOLDER
  5
F
102
{ACAD_REACTORS
330
E
102
}
330
E
  0
SCALE
  5
48
102
{ACAD_REACTORS
330
47
102
}
330
47
100
AcDbScale
 70
     0
300
1:1
140
1.0
141
1.0
290
     1
  0
SCALE
  5
49
102
{ACAD_REACTORS
330
47
102
}
330
47
100
AcDbScale
 70
     0
300
1:2
140
1.0
141
2.0
290
     0
  0
SCALE
  5
4A
102
{ACAD_REACTORS
330
47
102
}
330
47
100
AcDbScale
 70
     0
300
1:4
140
1.0
141
4.0
290
     0
  0
SCALE
  5
4B
102
{ACAD_REACTORS
330
47
102
}
330
47
100
AcDbScale
 70
     0
300
1:5
140
1.0
141
5.0
290
     0
  0
SCALE
  5
4C
102
{ACAD_REACTORS
330
47
102
}
330
47
100
AcDbScale
 70
     0
300
1:8
140
1.0
141
8.0
290
     0
  0
SCALE
  5
4D
102
{ACAD_REACTORS
330
47
102
}
330
47
100
AcDbScale
 70
     0
300
1:10
140
1.0
141
10.0
290
     0
  0
SCALE
  5
4E
102
{ACAD_REACTORS
330
47
102
}
330
47
100
AcDbScale
 70
     0
300
1:16
140
1.0
141
16.0
290
     0
  0
SCALE
  5
4F
102
{ACAD_REACTORS
330
47
102
}
330
47
100
AcDbScale
 70
     0
300
1:20
140
1.0
141
20.0
290
     0
  0
SCALE
  5
50
102
{ACAD_REACTORS
330
47
102
}
330
47
100
AcDbScale
 70
     0
300
1:30
140
1.0
141
30.0
290
     0
  0
SCALE
  5
51
102
{ACAD_REACTORS
330
47
102
}
330
47
100
AcDbScale
 70
     0
300
1:40
140
1.0
141
40.0
290
     0
  0
SCALE
  5
52
102
{ACAD_REACTORS
330
47
102
}
330
47
100
AcDbScale
 70
     0
300
1:50
140
1.0
141
50.0
290
     0
  0
SCALE
  5
53
102
{ACAD_REACTORS
330
47
102
}
330
47
100
AcDbScale
 70
     0
300
1:100
140
1.0
141
100.0
290
     0
  0
SCALE
  5
54
102
{ACAD_REACTORS
330
47
102
}
330
47
100
AcDbScale
 70
     0
300
2:1
140
2.0
141
1.0
290
     0
  0
SCALE
  5
55
102
{ACAD_REACTORS
330
47
102
}
330
47
100
AcDbScale
 70
     0
300
4:1
140
4.0
141
1.0
290
     0
  0
SCALE
  5
56
102
{ACAD_REACTORS
330
47
102
}
330
47
100
AcDbScale
 70
     0
300
8:1
140
8.0
141
1.0
290
     0
  0
SCALE
  5
57
102
{ACAD_REACTORS
330
47
102
}
330
47
100
AcDbScale
 70
     0
300
10:1
140
10.0
141
1.0
290
     0
  0
SCALE
  5
58
102
{ACAD_REACTORS
330
47
102
}
330
47
100
AcDbScale
 70
     0
300
100:1
140
100.0
141
1.0
290
     0
  0
SCALE
  5
59
102
{ACAD_REACTORS
330
47
102
}
330
47
100
AcDbScale
 70
     0
300
1/128" = 1'-0"
140
0.0078125
141
12.0
290
     0
  0
SCALE
  5
5A
102
{ACAD_REACTORS
330
47
102
}
330
47
100
AcDbScale
 70
     0
300
1/64" = 1'-0"
140
0.015625
141
12.0
290
     0
  0
SCALE
  5
5B
102
{ACAD_REACTORS
330
47
102
}
330
47
100
AcDbScale
 70
     0
300
1/32" = 1'-0"
140
0.03125
141
12.0
290
     0
  0
SCALE
  5
5C
102
{ACAD_REACTORS
330
47
102
}
330
47
100
AcDbScale
 70
     0
300
1/16" = 1'-0"
140
0.0625
141
12.0
290
     0
  0
SCALE
  5
5D
102
{ACAD_REACTORS
330
47
102
}
330
47
100
AcDbScale
 70
     0
300
3/32" = 1'-0"
140
0.09375
141
12.0
290
     0
  0
SCALE
  5
5E
102
{ACAD_REACTORS
330
47
102
}
330
47
100
AcDbScale
 70
     0
300
1/8" = 1'-0"
140
0.125
141
12.0
290
     0
  0
SCALE
  5
5F
102
{ACAD_REACTORS
330
47
102
}
330
47
100
AcDbScale
 70
     0
300
3/16" = 1'-0"
140
0.1875
141
12.0
290
     0
  0
SCALE
  5
60
102
{ACAD_REACTORS
330
47
102
}
330
47
100
AcDbScale
 70
     0
300
1/4" = 1'-0"
140
0.25
141
12.0
290
     0
  0
SCALE
  5
61
102
{ACAD_REACTORS
330
47
102
}
330
47
100
AcDbScale
 70
     0
300
3/8" = 1'-0"
140
0.375
141
12.0
290
     0
  0
SCALE
  5
62
102
{ACAD_REACTORS
330
47
102
}
330
47
100
AcDbScale
 70
     0
300
1/2" = 1'-0"
140
0.5
141
12.0
290
     0
  0
SCALE
  5
63
102
{ACAD_REACTORS
330
47
102
}
330
47
100
AcDbScale
 70
     0
300
3/4" = 1'-0"
140
0.75
141
12.0
290
     0
  0
SCALE
  5
64
102
{ACAD_REACTORS
330
47
102
}
330
47
100
AcDbScale
 70
     0
300
1" = 1'-0"
140
1.0
141
12.0
290
     0
  0
SCALE
  5
65
102
{ACAD_REACTORS
330
47
102
}
330
47
100
AcDbScale
 70
     0
300
1-1/2" = 1'-0"
140
1.5
141
12.0
290
     0
  0
SCALE
  5
66
102
{ACAD_REACTORS
330
47
102
}
330
47
100
AcDbScale
 70
     0
300
3" = 1'-0"
140
3.0
141
12.0
290
     0
  0
SCALE
  5
67
102
{ACAD_REACTORS
330
47
102
}
330
47
100
AcDbScale
 70
     0
300
6" = 1'-0"
140
6.0
141
12.0
290
     0
  0
SCALE
  5
68
102
{ACAD_REACTORS
330
47
102
}
330
47
100
AcDbScale
 70
     0
300
1'-0" = 1'-0"
140
12.0
141
12.0
290
     0
  0
ENDSEC
  0
EOF
